<?xml version="1.0" encoding="utf-8" standalone="no"?>
<!DOCTYPE svg PUBLIC "-//W3C//DTD SVG 1.1//EN"
  "http://www.w3.org/Graphics/SVG/1.1/DTD/svg11.dtd">
<svg xmlns:xlink="http://www.w3.org/1999/xlink" width="1099.840312pt" height="308.91325pt" viewBox="0 0 1099.840312 308.91325" xmlns="http://www.w3.org/2000/svg" version="1.1">
 <metadata>
  <rdf:RDF xmlns:dc="http://purl.org/dc/elements/1.1/" xmlns:cc="http://creativecommons.org/ns#" xmlns:rdf="http://www.w3.org/1999/02/22-rdf-syntax-ns#">
   <cc:Work>
    <dc:type rdf:resource="http://purl.org/dc/dcmitype/StillImage"/>
    <dc:date>2022-09-28T20:37:09.260320</dc:date>
    <dc:format>image/svg+xml</dc:format>
    <dc:creator>
     <cc:Agent>
      <dc:title>Matplotlib v3.5.2, https://matplotlib.org/</dc:title>
     </cc:Agent>
    </dc:creator>
   </cc:Work>
  </rdf:RDF>
 </metadata>
 <defs>
  <style type="text/css">*{stroke-linejoin: round; stroke-linecap: butt}</style>
 </defs>
 <g id="figure_1">
  <g id="patch_1">
   <path d="M 0 308.91325 
L 1099.840312 308.91325 
L 1099.840312 0 
L 0 0 
z
" style="fill: #ffffff"/>
  </g>
  <g id="axes_1">
   <g id="patch_2">
    <path d="M 82.514063 254.715938 
L 377.925827 254.715938 
L 377.925827 32.955938 
L 82.514063 32.955938 
z
" style="fill: #ffffff"/>
   </g>
   <g id="PolyCollection_1">
    <defs>
     <path id="m8f25647c61" d="M 82.514063 -63.310737 
L 82.514063 -63.310737 
L 85.62366 -63.310737 
L 88.733258 -63.310737 
L 91.842855 -63.310737 
L 94.952453 -63.310737 
L 98.06205 -63.310737 
L 101.171648 -63.310737 
L 104.281245 -63.310737 
L 107.390843 -63.483775 
L 110.50044 -84.334835 
L 113.610038 -63.862589 
L 116.719635 -64.570331 
L 119.829233 -63.504041 
L 122.93883 -63.842323 
L 126.048428 -63.310737 
L 129.158025 -63.310737 
L 132.267623 -63.398036 
L 135.37722 -78.626382 
L 138.486818 -63.310737 
L 141.596415 -63.310737 
L 144.706013 -63.310737 
L 147.81561 -63.572633 
L 150.925208 -69.681538 
L 154.034806 -64.350525 
L 157.144403 -64.138515 
L 160.254001 -64.437824 
L 163.363598 -64.252315 
L 166.473196 -68.684183 
L 169.582793 -64.721544 
L 172.692391 -64.724662 
L 175.801988 -64.553183 
L 178.911586 -67.922853 
L 182.021183 -80.871954 
L 185.130781 -67.761588 
L 188.240378 -64.690366 
L 191.349976 -91.988623 
L 194.459573 -95.034887 
L 197.569171 -115.371004 
L 200.678768 -115.189987 
L 203.788366 -79.207236 
L 206.897963 -100.058536 
L 210.007561 -90.192195 
L 213.117158 -99.077772 
L 216.226756 -95.383716 
L 219.336354 -97.3799 
L 222.445951 -82.397888 
L 225.555549 -102.767955 
L 228.665146 -92.936577 
L 231.774744 -90.178006 
L 234.884341 -99.815099 
L 237.993939 -109.704819 
L 241.103536 -64.668542 
L 244.213134 -77.573966 
L 247.322731 -91.215484 
L 250.432329 -77.636459 
L 253.541926 -103.485618 
L 256.651524 -134.194908 
L 259.761121 -112.296249 
L 262.870719 -123.460055 
L 265.980316 -100.997236 
L 269.089914 -117.483125 
L 272.199511 -97.229243 
L 275.309109 -121.032929 
L 278.418706 -101.919587 
L 281.528304 -94.278813 
L 284.637902 -98.10015 
L 287.747499 -107.645437 
L 290.857097 -105.557206 
L 293.966694 -117.852343 
L 297.076292 -102.431347 
L 300.185889 -80.574841 
L 303.295487 -98.381535 
L 306.405084 -72.746185 
L 309.514682 -76.64086 
L 312.624279 -80.865847 
L 315.733877 -96.415286 
L 318.843474 -82.515378 
L 321.953072 -97.587308 
L 325.062669 -82.916751 
L 328.172267 -81.407984 
L 331.281864 -64.688807 
L 334.391462 -64.640481 
L 337.501059 -79.390816 
L 340.610657 -79.693892 
L 343.720254 -64.687248 
L 346.829852 -100.196524 
L 349.939449 -109.880516 
L 353.049047 -79.885171 
L 356.158645 -105.571607 
L 359.268242 -120.039214 
L 362.37784 -118.776933 
L 365.487437 -81.862678 
L 368.597035 -89.044156 
L 371.706632 -78.023242 
L 374.81623 -74.203839 
L 377.925827 -113.863571 
L 381.035425 -98.896156 
L 384.145022 -77.947997 
L 387.25462 -97.582337 
L 390.364217 -128.186549 
L 390.364217 -194.677336 
L 390.364217 -194.677336 
L 387.25462 -165.011433 
L 384.145022 -134.339669 
L 381.035425 -169.408694 
L 377.925827 -186.216753 
L 374.81623 -126.600912 
L 371.706632 -128.857126 
L 368.597035 -152.102689 
L 365.487437 -145.796298 
L 362.37784 -190.356059 
L 359.268242 -191.888561 
L 356.158645 -172.697254 
L 353.049047 -136.655427 
L 349.939449 -179.08143 
L 346.829852 -171.20689 
L 343.720254 -115.581919 
L 340.610657 -136.360656 
L 337.501059 -136.785245 
L 334.391462 -113.806001 
L 331.281864 -115.641116 
L 328.172267 -143.820745 
L 325.062669 -150.392548 
L 321.953072 -163.548314 
L 318.843474 -148.788967 
L 315.733877 -163.444457 
L 312.624279 -141.38583 
L 309.514682 -131.272362 
L 306.405084 -124.048659 
L 303.295487 -164.698284 
L 300.185889 -140.643981 
L 297.076292 -164.536867 
L 293.966694 -189.579476 
L 290.857097 -174.959633 
L 287.747499 -172.628377 
L 284.637902 -164.250596 
L 281.528304 -157.075066 
L 278.418706 -165.230895 
L 275.309109 -185.244524 
L 272.199511 -162.812769 
L 269.089914 -186.303325 
L 265.980316 -171.985839 
L 262.870719 -200.375929 
L 259.761121 -183.834924 
L 256.651524 -207.260363 
L 253.541926 -163.543352 
L 250.432329 -131.795667 
L 247.322731 -154.002023 
L 244.213134 -129.063376 
L 241.103536 -114.871552 
L 237.993939 -177.495198 
L 234.884341 -169.097312 
L 231.774744 -143.252805 
L 228.665146 -154.954201 
L 225.555549 -160.372621 
L 222.445951 -148.116627 
L 219.336354 -153.062638 
L 216.226756 -159.129485 
L 213.117158 -167.525905 
L 210.007561 -151.987504 
L 206.897963 -169.036144 
L 203.788366 -136.908069 
L 200.678768 -182.399334 
L 197.569171 -181.732268 
L 194.459573 -159.05302 
L 191.349976 -152.49981 
L 188.240378 -115.700313 
L 185.130781 -119.373026 
L 182.021183 -133.420666 
L 178.911586 -110.341361 
L 175.801988 -110.490954 
L 172.692391 -117.002653 
L 169.582793 -116.884259 
L 166.473196 -89.773522 
L 163.363598 -99.065883 
L 160.254001 -106.110357 
L 157.144403 -94.744483 
L 154.034806 -102.795311 
L 150.925208 -104.633525 
L 147.81561 -73.255877 
L 144.706013 -63.310737 
L 141.596415 -63.310737 
L 138.486818 -63.310737 
L 135.37722 -131.474062 
L 132.267623 -66.625784 
L 129.158025 -63.310737 
L 126.048428 -63.310737 
L 122.93883 -83.497003 
L 119.829233 -70.651198 
L 116.719635 -111.142124 
L 113.610038 -84.266568 
L 110.50044 -125.097291 
L 107.390843 -69.881633 
L 104.281245 -63.310737 
L 101.171648 -63.310737 
L 98.06205 -63.310737 
L 94.952453 -63.310737 
L 91.842855 -63.310737 
L 88.733258 -63.310737 
L 85.62366 -63.310737 
L 82.514063 -63.310737 
z
" style="stroke: #000000; stroke-opacity: 0.1"/>
    </defs>
    <g clip-path="url(#pa3b3aa2e0a)">
     <use xlink:href="#m8f25647c61" x="0" y="308.91325" style="fill-opacity: 0.1; stroke: #000000; stroke-opacity: 0.1"/>
    </g>
   </g>
   <g id="PolyCollection_2">
    <defs>
     <path id="medaf4ff30c" d="M 82.514063 -81.013285 
L 82.514063 -66.523499 
L 85.62366 -63.329462 
L 88.733258 -63.310737 
L 91.842855 -63.310737 
L 94.952453 -63.320577 
L 98.06205 -63.332805 
L 101.171648 -66.858077 
L 104.281245 -64.166152 
L 107.390843 -63.601344 
L 110.50044 -73.657072 
L 113.610038 -68.009743 
L 116.719635 -73.215621 
L 119.829233 -70.795154 
L 122.93883 -72.705232 
L 126.048428 -82.923645 
L 129.158025 -75.148483 
L 132.267623 -96.098743 
L 135.37722 -92.019717 
L 138.486818 -102.279333 
L 141.596415 -102.032624 
L 144.706013 -104.091419 
L 147.81561 -113.943655 
L 150.925208 -115.539241 
L 154.034806 -126.10044 
L 157.144403 -131.877885 
L 160.254001 -108.733497 
L 163.363598 -120.58997 
L 166.473196 -125.087311 
L 169.582793 -137.149784 
L 172.692391 -131.222033 
L 175.801988 -129.889032 
L 178.911586 -129.641785 
L 182.021183 -146.270938 
L 185.130781 -151.534142 
L 188.240378 -158.33102 
L 191.349976 -156.888085 
L 194.459573 -166.18111 
L 197.569171 -182.87039 
L 200.678768 -178.07933 
L 203.788366 -179.961151 
L 206.897963 -203.628319 
L 210.007561 -206.551026 
L 213.117158 -218.079418 
L 216.226756 -212.288313 
L 219.336354 -214.971042 
L 222.445951 -224.522311 
L 225.555549 -228.534079 
L 228.665146 -230.962469 
L 231.774744 -214.306858 
L 234.884341 -220.19279 
L 237.993939 -232.770402 
L 241.103536 -238.628925 
L 244.213134 -238.385625 
L 247.322731 -233.242431 
L 250.432329 -239.624578 
L 253.541926 -236.556237 
L 256.651524 -236.221755 
L 259.761121 -226.849392 
L 262.870719 -241.177937 
L 265.980316 -232.608848 
L 269.089914 -235.469127 
L 272.199511 -241.087107 
L 275.309109 -228.705231 
L 278.418706 -233.545659 
L 281.528304 -232.722631 
L 284.637902 -236.033143 
L 287.747499 -230.500623 
L 290.857097 -232.407844 
L 293.966694 -221.007902 
L 297.076292 -231.802618 
L 300.185889 -237.189768 
L 303.295487 -230.082451 
L 306.405084 -226.250266 
L 309.514682 -225.705426 
L 312.624279 -243.243919 
L 315.733877 -239.519037 
L 318.843474 -212.381231 
L 321.953072 -227.070611 
L 325.062669 -226.548684 
L 328.172267 -225.5051 
L 331.281864 -218.90402 
L 334.391462 -221.796807 
L 337.501059 -220.876844 
L 340.610657 -228.026578 
L 343.720254 -217.277713 
L 346.829852 -217.381488 
L 349.939449 -213.17375 
L 353.049047 -218.106073 
L 356.158645 -225.207249 
L 359.268242 -215.552252 
L 362.37784 -209.773745 
L 365.487437 -211.991217 
L 368.597035 -209.075283 
L 371.706632 -194.235798 
L 374.81623 -209.984523 
L 377.925827 -198.008152 
L 381.035425 -203.587078 
L 384.145022 -203.901825 
L 387.25462 -193.220298 
L 390.364217 -204.789488 
L 390.364217 -219.628326 
L 390.364217 -219.628326 
L 387.25462 -207.36591 
L 384.145022 -219.376811 
L 381.035425 -217.92963 
L 377.925827 -212.739526 
L 374.81623 -219.52162 
L 371.706632 -213.656339 
L 368.597035 -223.514235 
L 365.487437 -226.096734 
L 362.37784 -223.620793 
L 359.268242 -228.915096 
L 356.158645 -237.62365 
L 353.049047 -231.069878 
L 349.939449 -224.671177 
L 346.829852 -226.599811 
L 343.720254 -231.412188 
L 340.610657 -237.006732 
L 337.501059 -233.554516 
L 334.391462 -235.641982 
L 331.281864 -231.623755 
L 328.172267 -237.568823 
L 325.062669 -238.378303 
L 321.953072 -240.043597 
L 318.843474 -225.083969 
L 315.733877 -247.811786 
L 312.624279 -252.410497 
L 309.514682 -235.834404 
L 306.405084 -239.041258 
L 303.295487 -238.778497 
L 300.185889 -247.817131 
L 297.076292 -247.371689 
L 293.966694 -231.828607 
L 290.857097 -245.110858 
L 287.747499 -240.881706 
L 284.637902 -246.300485 
L 281.528304 -242.775928 
L 278.418706 -246.038753 
L 275.309109 -241.553109 
L 272.199511 -250.025787 
L 269.089914 -245.679756 
L 265.980316 -246.292056 
L 262.870719 -250.147603 
L 259.761121 -242.512795 
L 256.651524 -245.732146 
L 253.541926 -246.233062 
L 250.432329 -247.660677 
L 247.322731 -242.757367 
L 244.213134 -249.507192 
L 241.103536 -248.048768 
L 237.993939 -243.047127 
L 234.884341 -235.560016 
L 231.774744 -228.854233 
L 228.665146 -242.78935 
L 225.555549 -239.552228 
L 222.445951 -236.394769 
L 219.336354 -225.790181 
L 216.226756 -224.538948 
L 213.117158 -232.099009 
L 210.007561 -222.377933 
L 206.897963 -216.582131 
L 203.788366 -194.560664 
L 200.678768 -196.002002 
L 197.569171 -202.678668 
L 194.459573 -183.111707 
L 191.349976 -176.091702 
L 188.240378 -175.05887 
L 185.130781 -168.170423 
L 182.021183 -164.305013 
L 178.911586 -147.457519 
L 175.801988 -150.384782 
L 172.692391 -151.618729 
L 169.582793 -156.915679 
L 166.473196 -144.523796 
L 163.363598 -139.695066 
L 160.254001 -127.066804 
L 157.144403 -151.054011 
L 154.034806 -144.497955 
L 150.925208 -132.230025 
L 147.81561 -129.648624 
L 144.706013 -120.636071 
L 141.596415 -117.87994 
L 138.486818 -119.486295 
L 135.37722 -106.111762 
L 132.267623 -111.692967 
L 129.158025 -86.225517 
L 126.048428 -97.907517 
L 122.93883 -83.322226 
L 119.829233 -78.625071 
L 116.719635 -81.611902 
L 113.610038 -76.899337 
L 110.50044 -83.767777 
L 107.390843 -68.351484 
L 104.281245 -66.981657 
L 101.171648 -74.405633 
L 98.06205 -66.797338 
L 94.952453 -64.865369 
L 91.842855 -63.310737 
L 88.733258 -63.310737 
L 85.62366 -66.269065 
L 82.514063 -81.013285 
z
" style="stroke: #ff0000; stroke-opacity: 0.1"/>
    </defs>
    <g clip-path="url(#pa3b3aa2e0a)">
     <use xlink:href="#medaf4ff30c" x="0" y="308.91325" style="fill: #ff0000; fill-opacity: 0.1; stroke: #ff0000; stroke-opacity: 0.1"/>
    </g>
   </g>
   <g id="matplotlib.axis_1">
    <g id="xtick_1">
     <g id="line2d_1">
      <defs>
       <path id="m50a6fe1cf5" d="M 0 0 
L 0 3.5 
" style="stroke: #000000; stroke-width: 0.8"/>
      </defs>
      <g>
       <use xlink:href="#m50a6fe1cf5" x="82.514063" y="254.715938" style="stroke: #000000; stroke-width: 0.8"/>
      </g>
     </g>
     <g id="text_1">
      <text style="font: 18px 'DejaVu Sans'; text-anchor: middle" x="82.514063" y="275.393125" transform="rotate(-0, 82.514063, 275.393125)">0</text>
     </g>
    </g>
    <g id="xtick_2">
     <g id="line2d_2">
      <g>
       <use xlink:href="#m50a6fe1cf5" x="377.925827" y="254.715938" style="stroke: #000000; stroke-width: 0.8"/>
      </g>
     </g>
     <g id="text_2">
      <text style="font: 18px 'DejaVu Sans'; text-anchor: middle" x="377.925827" y="275.393125" transform="rotate(-0, 377.925827, 275.393125)">1</text>
     </g>
    </g>
    <g id="text_3">
     <text style="font: 18px 'DejaVu Sans'" transform="translate(181.182601 277.81375)">Timesteps </text>
     <text style="font: 18px 'DejaVu Sans'" transform="translate(116.753851 297.969813)">(Hundreds of Thousands)</text>
    </g>
   </g>
   <g id="matplotlib.axis_2">
    <g id="ytick_1">
     <g id="line2d_3">
      <defs>
       <path id="md28809f346" d="M 0 0 
L -3.5 0 
" style="stroke: #000000; stroke-width: 0.8"/>
      </defs>
      <g>
       <use xlink:href="#md28809f346" x="82.514063" y="245.602513" style="stroke: #000000; stroke-width: 0.8"/>
      </g>
     </g>
     <g id="text_4">
      <text style="font: 18px 'DejaVu Sans'; text-anchor: end" x="75.514063" y="252.441107" transform="rotate(-0, 75.514063, 252.441107)">−1000</text>
     </g>
    </g>
    <g id="ytick_2">
     <g id="line2d_4">
      <g>
       <use xlink:href="#md28809f346" x="82.514063" y="139.279225" style="stroke: #000000; stroke-width: 0.8"/>
      </g>
     </g>
     <g id="text_5">
      <text style="font: 18px 'DejaVu Sans'; text-anchor: end" x="75.514063" y="146.117819" transform="rotate(-0, 75.514063, 146.117819)">−650</text>
     </g>
    </g>
    <g id="ytick_3">
     <g id="line2d_5">
      <g>
       <use xlink:href="#md28809f346" x="82.514063" y="32.955938" style="stroke: #000000; stroke-width: 0.8"/>
      </g>
     </g>
     <g id="text_6">
      <text style="font: 18px 'DejaVu Sans'; text-anchor: end" x="75.514063" y="39.794531" transform="rotate(-0, 75.514063, 39.794531)">−300</text>
     </g>
    </g>
    <g id="text_7">
     <text style="font: 18px 'DejaVu Sans'; text-anchor: middle" x="20.877188" y="143.835938" transform="rotate(-90, 20.877188, 143.835938)">Average Return</text>
    </g>
   </g>
   <g id="line2d_6">
    <path d="M 82.514063 245.602513 
L 85.62366 245.602513 
L 88.733258 245.602513 
L 91.842855 245.602513 
L 94.952453 245.602513 
L 98.06205 245.602513 
L 101.171648 245.602513 
L 104.281245 245.602513 
L 107.390843 242.230546 
L 110.50044 204.197187 
L 113.610038 234.848672 
L 116.719635 221.057022 
L 119.829233 241.835631 
L 122.93883 235.243587 
L 126.048428 245.602513 
L 129.158025 245.602513 
L 132.267623 243.90134 
L 135.37722 203.863028 
L 138.486818 245.602513 
L 141.596415 245.602513 
L 144.706013 245.602513 
L 147.81561 240.498995 
L 150.925208 221.755718 
L 154.034806 225.340332 
L 157.144403 229.471751 
L 160.254001 223.639159 
L 163.363598 227.254151 
L 166.473196 229.684398 
L 169.582793 218.110348 
L 172.692391 218.049592 
L 175.801988 221.391181 
L 178.911586 219.781143 
L 182.021183 201.76694 
L 185.130781 215.345943 
L 188.240378 218.71791 
L 191.349976 186.669033 
L 194.459573 181.869296 
L 197.569171 160.361614 
L 200.678768 160.11859 
L 203.788366 200.855598 
L 206.897963 174.36591 
L 210.007561 187.823401 
L 213.117158 175.611411 
L 216.226756 181.65665 
L 219.336354 183.691981 
L 222.445951 193.655992 
L 225.555549 177.342962 
L 228.665146 184.967861 
L 231.774744 192.197844 
L 234.884341 174.457044 
L 237.993939 165.313242 
L 241.103536 219.143203 
L 244.213134 205.594579 
L 247.322731 186.304496 
L 250.432329 204.197187 
L 253.541926 175.398765 
L 256.651524 138.185614 
L 259.761121 160.847664 
L 262.870719 146.995258 
L 265.980316 172.421713 
L 269.089914 157.020025 
L 272.199511 178.892244 
L 275.309109 155.774524 
L 278.418706 175.338009 
L 281.528304 183.23631 
L 284.637902 177.737877 
L 287.747499 168.776343 
L 290.857097 168.654831 
L 293.966694 155.19734 
L 297.076292 175.429143 
L 300.185889 198.303839 
L 303.295487 177.37334 
L 306.405084 210.515828 
L 309.514682 204.956639 
L 312.624279 197.787411 
L 315.733877 178.983379 
L 318.843474 193.261077 
L 321.953072 178.345439 
L 325.062669 192.258601 
L 328.172267 196.298885 
L 331.281864 218.748288 
L 334.391462 219.690009 
L 337.501059 200.82522 
L 340.610657 200.885976 
L 343.720254 218.778666 
L 346.829852 173.211543 
L 349.939449 164.432277 
L 353.049047 200.642951 
L 356.158645 169.77882 
L 359.268242 152.949362 
L 362.37784 154.346754 
L 365.487437 195.083762 
L 368.597035 188.339828 
L 371.706632 205.473066 
L 374.81623 208.510874 
L 377.925827 158.873088 
L 381.035425 174.760825 
L 384.145022 202.769417 
L 387.25462 177.616365 
L 390.364217 147.481307 
" clip-path="url(#pa3b3aa2e0a)" style="fill: none; stroke: #000000; stroke-width: 1.5; stroke-linecap: square"/>
   </g>
   <g id="line2d_7">
    <path d="M 82.514063 235.144858 
L 85.62366 244.113987 
L 88.733258 245.602513 
L 91.842855 245.602513 
L 94.952453 244.820277 
L 98.06205 243.848179 
L 101.171648 238.281395 
L 104.281245 243.339346 
L 107.390843 242.936836 
L 110.50044 230.200825 
L 113.610038 236.45871 
L 116.719635 231.499488 
L 119.829233 234.203138 
L 122.93883 230.899521 
L 126.048428 218.497669 
L 129.158025 228.22625 
L 132.267623 205.017395 
L 135.37722 209.84751 
L 138.486818 198.030436 
L 141.596415 198.956968 
L 144.706013 196.549505 
L 147.81561 187.11711 
L 150.925208 185.028617 
L 154.034806 173.614053 
L 157.144403 167.447302 
L 160.254001 191.013099 
L 163.363598 178.770732 
L 166.473196 174.107696 
L 169.582793 161.880518 
L 172.692391 167.492869 
L 175.801988 168.776343 
L 178.911586 170.363598 
L 182.021183 153.625274 
L 185.130781 149.060968 
L 188.240378 142.218305 
L 191.349976 142.423357 
L 194.459573 134.266842 
L 197.569171 116.138721 
L 200.678768 121.872584 
L 203.788366 121.652343 
L 206.897963 98.808025 
L 210.007561 94.44877 
L 213.117158 83.824036 
L 216.226756 90.49962 
L 219.336354 88.532639 
L 222.445951 78.45471 
L 225.555549 74.870096 
L 228.665146 72.03734 
L 231.774744 87.332705 
L 234.884341 81.036847 
L 237.993939 71.004485 
L 241.103536 65.574403 
L 244.213134 64.966842 
L 247.322731 70.913351 
L 250.432329 65.270622 
L 253.541926 67.518601 
L 256.651524 67.936299 
L 259.761121 74.232157 
L 262.870719 63.25048 
L 265.980316 69.462798 
L 269.089914 68.338809 
L 272.199511 63.356803 
L 275.309109 73.78408 
L 278.418706 69.121044 
L 281.528304 71.16397 
L 284.637902 67.746436 
L 287.747499 73.222085 
L 290.857097 70.153899 
L 293.966694 82.494995 
L 297.076292 69.326096 
L 300.185889 66.409801 
L 303.295487 74.482776 
L 306.405084 76.267488 
L 309.514682 78.143335 
L 312.624279 61.086042 
L 315.733877 65.247839 
L 318.843474 90.18065 
L 321.953072 75.356146 
L 325.062669 76.449757 
L 328.172267 77.376288 
L 331.281864 83.649362 
L 334.391462 80.193855 
L 337.501059 81.69757 
L 340.610657 76.396595 
L 343.720254 84.568299 
L 346.829852 86.922601 
L 349.939449 89.990787 
L 353.049047 84.325274 
L 356.158645 77.497801 
L 359.268242 86.679576 
L 362.37784 92.215981 
L 365.487437 89.869274 
L 368.597035 92.618491 
L 371.706632 104.967181 
L 374.81623 94.160179 
L 377.925827 103.539411 
L 381.035425 98.154896 
L 384.145022 97.273932 
L 387.25462 108.620146 
L 390.364217 96.704343 
" clip-path="url(#pa3b3aa2e0a)" style="fill: none; stroke: #ff0000; stroke-width: 1.5; stroke-linecap: square"/>
   </g>
   <g id="patch_3">
    <path d="M 82.514063 254.715938 
L 82.514063 32.955938 
" style="fill: none; stroke: #000000; stroke-width: 2; stroke-linejoin: miter; stroke-linecap: square"/>
   </g>
   <g id="patch_4">
    <path d="M 82.514063 254.715938 
L 377.925827 254.715938 
" style="fill: none; stroke: #000000; stroke-width: 2; stroke-linejoin: miter; stroke-linecap: square"/>
   </g>
   <g id="text_8">
    <text style="font: 26px 'DejaVu Sans'; text-anchor: middle" x="230.219945" y="26.955938" transform="rotate(-0, 230.219945, 26.955938)">Acrobot</text>
   </g>
  </g>
  <g id="axes_2">
   <g id="patch_5">
    <path d="M 437.00818 254.715938 
L 732.419945 254.715938 
L 732.419945 32.955938 
L 437.00818 32.955938 
z
" style="fill: #ffffff"/>
   </g>
   <g id="PolyCollection_3">
    <defs>
     <path id="m4f8a999bdc" d="M 437.00818 -60.985884 
L 437.00818 -60.985884 
L 440.117778 -60.985884 
L 443.227375 -60.985884 
L 446.336973 -60.985884 
L 449.44657 -68.911241 
L 452.556168 -61.668683 
L 455.665765 -60.985884 
L 458.775363 -61.055557 
L 461.88496 -61.628041 
L 464.994558 -66.20363 
L 468.104155 -61.619912 
L 471.213753 -77.568992 
L 474.32335 -69.303962 
L 477.432948 -87.605617 
L 480.542545 -75.203257 
L 483.652143 -80.776335 
L 486.761741 -74.321344 
L 489.871338 -75.197932 
L 492.980936 -79.322722 
L 496.090533 -75.736906 
L 499.200131 -75.328661 
L 502.309728 -76.289175 
L 505.419326 -91.513313 
L 508.528923 -92.103089 
L 511.638521 -93.077837 
L 514.748118 -93.078417 
L 517.857716 -92.913812 
L 520.967313 -92.448502 
L 524.076911 -93.365469 
L 527.186508 -93.447327 
L 530.296106 -93.353771 
L 533.405703 -93.389119 
L 536.515301 -93.506132 
L 539.624898 -93.529494 
L 542.734496 -93.447597 
L 545.844093 -93.400563 
L 548.953691 -93.45934 
L 552.063289 -93.23452 
L 555.172886 -93.506098 
L 558.282484 -93.517718 
L 561.392081 -93.48259 
L 564.501679 -93.506132 
L 567.611276 -93.517718 
L 570.720874 -93.541158 
L 573.830471 -93.494198 
L 576.940069 -93.552862 
L 580.049666 -93.587956 
L 583.159264 -93.517819 
L 586.268861 -93.552912 
L 589.378459 -93.470701 
L 592.488056 -93.576236 
L 595.597654 -93.564588 
L 598.707251 -93.529528 
L 601.816849 -93.482624 
L 604.926446 -93.564622 
L 608.036044 -105.858557 
L 611.145641 -103.782411 
L 614.255239 -108.685405 
L 617.364836 -103.149319 
L 620.474434 -103.719802 
L 623.584032 -110.361166 
L 626.693629 -93.576286 
L 629.803227 -93.541192 
L 632.912824 -97.296525 
L 636.022422 -93.727855 
L 639.132019 -93.482742 
L 642.241617 -97.49602 
L 645.351214 -102.661565 
L 648.460812 -94.750314 
L 651.570409 -106.298911 
L 654.680007 -103.295226 
L 657.789604 -109.403397 
L 660.899202 -112.31189 
L 664.008799 -111.78774 
L 667.118397 -111.900034 
L 670.227994 -111.958013 
L 673.337592 -112.506586 
L 676.447189 -112.409118 
L 679.556787 -112.520444 
L 682.666384 -112.534307 
L 685.775982 -112.326025 
L 688.88558 -112.53426 
L 691.995177 -112.464939 
L 695.104775 -112.506586 
L 698.214372 -112.437163 
L 701.32397 -112.423265 
L 704.433567 -112.283963 
L 707.543165 -112.423139 
L 710.652762 -112.464939 
L 713.76236 -112.24241 
L 716.871957 -112.409276 
L 719.981555 -112.464955 
L 723.091152 -112.409433 
L 726.20075 -112.478802 
L 729.310347 -112.451096 
L 732.419945 -112.437273 
L 735.529542 -112.395575 
L 738.63914 -112.465002 
L 741.748737 -112.437194 
L 744.858335 -112.492684 
L 744.858335 -177.60937 
L 744.858335 -177.60937 
L 741.748737 -177.483831 
L 738.63914 -177.546537 
L 735.529542 -177.389679 
L 732.419945 -177.483752 
L 729.310347 -177.515186 
L 726.20075 -177.577995 
L 723.091152 -177.421077 
L 719.981555 -177.546585 
L 716.871957 -177.421235 
L 713.76236 -177.045015 
L 710.652762 -177.5466 
L 707.543165 -177.452629 
L 704.433567 -177.139233 
L 701.32397 -177.452503 
L 698.214372 -177.483862 
L 695.104775 -177.640725 
L 691.995177 -177.5466 
L 688.88558 -177.703565 
L 685.775982 -177.232943 
L 682.666384 -177.703518 
L 679.556787 -177.672123 
L 676.447189 -177.421392 
L 673.337592 -177.640725 
L 670.227994 -176.424269 
L 667.118397 -176.30122 
L 664.008799 -176.051457 
L 660.899202 -177.201821 
L 657.789604 -171.420943 
L 654.680007 -162.820542 
L 651.570409 -166.424399 
L 648.460812 -155.072882 
L 645.351214 -162.096489 
L 642.241617 -157.305462 
L 639.132019 -154.213369 
L 636.022422 -154.37557 
L 632.912824 -157.097643 
L 629.803227 -154.381204 
L 626.693629 -154.481882 
L 623.584032 -173.178602 
L 620.474434 -163.346365 
L 617.364836 -162.694906 
L 614.255239 -170.192877 
L 611.145641 -163.419528 
L 608.036044 -166.004868 
L 604.926446 -154.448289 
L 601.816849 -154.213487 
L 598.707251 -154.347611 
L 595.597654 -154.448323 
L 592.488056 -154.481932 
L 589.378459 -154.180153 
L 586.268861 -154.414741 
L 583.159264 -154.314063 
L 580.049666 -154.515469 
L 576.940069 -154.414792 
L 573.830471 -154.24717 
L 570.720874 -154.381238 
L 567.611276 -154.314165 
L 564.501679 -154.280493 
L 561.392081 -154.213521 
L 558.282484 -154.314165 
L 555.172886 -154.280527 
L 552.063289 -153.511191 
L 548.953691 -154.146256 
L 545.844093 -153.978748 
L 542.734496 -154.112742 
L 539.624898 -154.347645 
L 536.515301 -154.280493 
L 533.405703 -153.944935 
L 530.296106 -153.844511 
L 527.186508 -154.113012 
L 524.076911 -153.87807 
L 520.967313 -151.355495 
L 517.857716 -152.609956 
L 514.748118 -153.078951 
L 511.638521 -153.079531 
L 508.528923 -150.433707 
L 505.419326 -149.077426 
L 502.309728 -128.955735 
L 499.200131 -124.937964 
L 496.090533 -126.656805 
L 492.980936 -129.678531 
L 489.871338 -124.616121 
L 486.761741 -120.242881 
L 483.652143 -130.26149 
L 480.542545 -124.158225 
L 477.432948 -139.181694 
L 474.32335 -101.002434 
L 471.213753 -111.790662 
L 468.104155 -85.062256 
L 464.994558 -98.852937 
L 461.88496 -85.370927 
L 458.775363 -63.631639 
L 455.665765 -60.985884 
L 452.556168 -86.914284 
L 449.44657 -98.498698 
L 446.336973 -60.985884 
L 443.227375 -60.985884 
L 440.117778 -60.985884 
L 437.00818 -60.985884 
z
" style="stroke: #000000; stroke-opacity: 0.1"/>
    </defs>
    <g clip-path="url(#p0deb0ca948)">
     <use xlink:href="#m4f8a999bdc" x="0" y="308.91325" style="fill-opacity: 0.1; stroke: #000000; stroke-opacity: 0.1"/>
    </g>
   </g>
   <g id="PolyCollection_4">
    <defs>
     <path id="me04b01d485" d="M 437.00818 -60.985884 
L 437.00818 -60.985884 
L 440.117778 -60.985884 
L 443.227375 -60.985884 
L 446.336973 -60.985884 
L 449.44657 -63.408608 
L 452.556168 -60.985884 
L 455.665765 -62.684109 
L 458.775363 -61.321054 
L 461.88496 -61.014491 
L 464.994558 -60.986382 
L 468.104155 -60.985884 
L 471.213753 -62.672153 
L 474.32335 -64.570501 
L 477.432948 -65.174916 
L 480.542545 -65.615774 
L 483.652143 -70.235329 
L 486.761741 -72.78981 
L 489.871338 -75.408326 
L 492.980936 -78.991718 
L 496.090533 -83.723935 
L 499.200131 -79.82948 
L 502.309728 -84.796443 
L 505.419326 -90.246746 
L 508.528923 -93.317534 
L 511.638521 -89.952611 
L 514.748118 -92.631549 
L 517.857716 -97.761099 
L 520.967313 -97.453392 
L 524.076911 -94.488064 
L 527.186508 -94.349771 
L 530.296106 -96.053328 
L 533.405703 -94.280731 
L 536.515301 -94.421362 
L 539.624898 -94.136005 
L 542.734496 -101.965931 
L 545.844093 -98.117223 
L 548.953691 -105.680278 
L 552.063289 -107.72631 
L 555.172886 -106.762314 
L 558.282484 -109.323574 
L 561.392081 -107.962189 
L 564.501679 -103.716136 
L 567.611276 -105.502997 
L 570.720874 -110.463359 
L 573.830471 -111.689872 
L 576.940069 -113.001489 
L 580.049666 -108.784866 
L 583.159264 -124.007408 
L 586.268861 -108.96145 
L 589.378459 -108.676456 
L 592.488056 -108.805787 
L 595.597654 -112.048337 
L 598.707251 -121.036061 
L 601.816849 -119.506908 
L 604.926446 -128.655863 
L 608.036044 -129.829584 
L 611.145641 -127.924893 
L 614.255239 -130.883679 
L 617.364836 -132.217532 
L 620.474434 -132.723381 
L 623.584032 -133.448125 
L 626.693629 -130.800914 
L 629.803227 -128.491213 
L 632.912824 -128.783919 
L 636.022422 -132.884128 
L 639.132019 -133.612006 
L 642.241617 -135.880531 
L 645.351214 -136.649417 
L 648.460812 -134.096287 
L 651.570409 -133.717199 
L 654.680007 -136.552585 
L 657.789604 -136.968866 
L 660.899202 -139.447755 
L 664.008799 -141.228759 
L 667.118397 -136.305619 
L 670.227994 -141.379144 
L 673.337592 -139.890829 
L 676.447189 -139.012311 
L 679.556787 -138.186095 
L 682.666384 -139.050769 
L 685.775982 -139.924019 
L 688.88558 -139.277222 
L 691.995177 -139.281775 
L 695.104775 -138.609858 
L 698.214372 -139.319302 
L 701.32397 -139.794415 
L 704.433567 -139.039847 
L 707.543165 -134.174826 
L 710.652762 -133.743408 
L 713.76236 -139.07856 
L 716.871957 -138.906717 
L 719.981555 -138.527706 
L 723.091152 -138.873765 
L 726.20075 -139.366033 
L 729.310347 -139.319356 
L 732.419945 -139.300677 
L 735.529542 -139.126324 
L 738.63914 -139.234451 
L 741.748737 -139.319316 
L 744.858335 -139.30063 
L 744.858335 -172.479595 
L 744.858335 -172.479595 
L 741.748737 -172.506166 
L 738.63914 -172.387374 
L 735.529542 -172.235272 
L 732.419945 -172.479548 
L 729.310347 -172.506126 
L 726.20075 -172.572592 
L 723.091152 -171.888174 
L 719.981555 -171.408291 
L 716.871957 -171.934423 
L 713.76236 -172.169894 
L 710.652762 -166.552817 
L 707.543165 -167.162314 
L 704.433567 -172.118092 
L 701.32397 -172.868325 
L 698.214372 -172.50618 
L 695.104775 -171.54111 
L 691.995177 -172.453193 
L 688.88558 -172.446432 
L 685.775982 -172.953692 
L 682.666384 -172.129799 
L 679.556787 -171.014472 
L 676.447189 -172.077742 
L 673.337592 -172.839796 
L 670.227994 -174.191367 
L 667.118397 -168.844434 
L 664.008799 -173.640266 
L 660.899202 -171.517841 
L 657.789604 -169.550216 
L 654.680007 -169.197126 
L 651.570409 -166.511141 
L 648.460812 -167.04851 
L 645.351214 -169.247379 
L 642.241617 -168.296494 
L 639.132019 -166.356105 
L 636.022422 -165.375526 
L 632.912824 -161.352078 
L 629.803227 -160.920669 
L 626.693629 -163.023539 
L 623.584032 -166.123986 
L 620.474434 -165.106329 
L 617.364836 -164.48075 
L 614.255239 -163.144432 
L 611.145641 -160.129275 
L 608.036044 -161.53967 
L 604.926446 -160.688134 
L 601.816849 -150.274688 
L 598.707251 -151.29125 
L 595.597654 -142.334517 
L 592.488056 -139.263695 
L 589.378459 -139.053597 
L 586.268861 -139.515347 
L 583.159264 -154.78036 
L 580.049666 -139.228045 
L 576.940069 -143.74605 
L 573.830471 -141.810467 
L 570.720874 -139.959495 
L 567.611276 -134.352314 
L 564.501679 -132.699632 
L 561.392081 -137.572893 
L 558.282484 -139.209794 
L 555.172886 -135.864996 
L 552.063289 -136.767858 
L 548.953691 -134.876518 
L 545.844093 -125.637859 
L 542.734496 -129.788351 
L 539.624898 -121.676448 
L 536.515301 -122.194406 
L 533.405703 -121.939037 
L 530.296106 -123.538097 
L 527.186508 -121.847369 
L 524.076911 -121.414904 
L 520.967313 -125.11369 
L 517.857716 -124.104498 
L 514.748118 -118.270504 
L 511.638521 -115.122585 
L 508.528923 -118.218119 
L 505.419326 -115.122622 
L 502.309728 -108.274296 
L 499.200131 -100.772916 
L 496.090533 -104.402462 
L 492.980936 -98.42005 
L 489.871338 -93.970299 
L 486.761741 -90.083101 
L 483.652143 -82.183182 
L 480.542545 -75.556337 
L 477.432948 -73.496737 
L 474.32335 -73.048924 
L 471.213753 -67.70613 
L 468.104155 -60.985884 
L 464.994558 -61.064586 
L 461.88496 -65.50562 
L 458.775363 -63.151171 
L 455.665765 -71.767316 
L 452.556168 -60.985884 
L 449.44657 -69.594588 
L 446.336973 -60.985884 
L 443.227375 -60.985884 
L 440.117778 -60.985884 
L 437.00818 -60.985884 
z
" style="stroke: #ff0000; stroke-opacity: 0.1"/>
    </defs>
    <g clip-path="url(#p0deb0ca948)">
     <use xlink:href="#me04b01d485" x="0" y="308.91325" style="fill: #ff0000; fill-opacity: 0.1; stroke: #ff0000; stroke-opacity: 0.1"/>
    </g>
   </g>
   <g id="matplotlib.axis_3">
    <g id="xtick_3">
     <g id="line2d_8">
      <g>
       <use xlink:href="#m50a6fe1cf5" x="437.00818" y="254.715938" style="stroke: #000000; stroke-width: 0.8"/>
      </g>
     </g>
     <g id="text_9">
      <text style="font: 18px 'DejaVu Sans'; text-anchor: middle" x="437.00818" y="275.393125" transform="rotate(-0, 437.00818, 275.393125)">0</text>
     </g>
    </g>
    <g id="xtick_4">
     <g id="line2d_9">
      <g>
       <use xlink:href="#m50a6fe1cf5" x="732.419945" y="254.715938" style="stroke: #000000; stroke-width: 0.8"/>
      </g>
     </g>
     <g id="text_10">
      <text style="font: 18px 'DejaVu Sans'; text-anchor: middle" x="732.419945" y="275.393125" transform="rotate(-0, 732.419945, 275.393125)">1</text>
     </g>
    </g>
    <g id="text_11">
     <text style="font: 18px 'DejaVu Sans'" transform="translate(535.676719 277.81375)">Timesteps </text>
     <text style="font: 18px 'DejaVu Sans'" transform="translate(471.247969 297.969813)">(Hundreds of Thousands)</text>
    </g>
   </g>
   <g id="matplotlib.axis_4">
    <g id="ytick_4">
     <g id="line2d_10">
      <g>
       <use xlink:href="#md28809f346" x="437.00818" y="247.927366" style="stroke: #000000; stroke-width: 0.8"/>
      </g>
     </g>
     <g id="text_12">
      <text style="font: 18px 'DejaVu Sans'; text-anchor: end" x="430.00818" y="254.76596" transform="rotate(-0, 430.00818, 254.76596)">−1000</text>
     </g>
    </g>
    <g id="ytick_5">
     <g id="line2d_11">
      <g>
       <use xlink:href="#md28809f346" x="437.00818" y="140.441652" style="stroke: #000000; stroke-width: 0.8"/>
      </g>
     </g>
     <g id="text_13">
      <text style="font: 18px 'DejaVu Sans'; text-anchor: end" x="430.00818" y="147.280246" transform="rotate(-0, 430.00818, 147.280246)">−525</text>
     </g>
    </g>
    <g id="ytick_6">
     <g id="line2d_12">
      <g>
       <use xlink:href="#md28809f346" x="437.00818" y="32.955938" style="stroke: #000000; stroke-width: 0.8"/>
      </g>
     </g>
     <g id="text_14">
      <text style="font: 18px 'DejaVu Sans'; text-anchor: end" x="430.00818" y="39.794531" transform="rotate(-0, 430.00818, 39.794531)">−50</text>
     </g>
    </g>
   </g>
   <g id="line2d_13">
    <path d="M 437.00818 247.927366 
L 440.117778 247.927366 
L 443.227375 247.927366 
L 446.336973 247.927366 
L 449.44657 225.20828 
L 452.556168 234.621766 
L 455.665765 247.927366 
L 458.775363 246.569652 
L 461.88496 235.413766 
L 464.994558 226.384966 
L 468.104155 235.572166 
L 471.213753 214.233423 
L 474.32335 223.760052 
L 477.432948 195.519595 
L 480.542545 209.232509 
L 483.652143 203.394338 
L 486.761741 211.631138 
L 489.871338 209.006223 
L 492.980936 204.412623 
L 496.090533 207.716395 
L 499.200131 208.779938 
L 502.309728 206.290795 
L 505.419326 188.61788 
L 508.528923 187.644852 
L 511.638521 185.834566 
L 514.748118 185.834566 
L 517.857716 186.151366 
L 520.967313 187.011252 
L 524.076911 185.29148 
L 527.186508 185.13308 
L 530.296106 185.314109 
L 533.405703 185.246223 
L 536.515301 185.019938 
L 539.624898 184.97468 
L 542.734496 185.13308 
L 545.844093 185.223595 
L 548.953691 185.110452 
L 552.063289 185.540395 
L 555.172886 185.019938 
L 558.282484 184.997309 
L 561.392081 185.065195 
L 564.501679 185.019938 
L 567.611276 184.997309 
L 570.720874 184.952052 
L 573.830471 185.042566 
L 576.940069 184.929423 
L 580.049666 184.861538 
L 583.159264 184.997309 
L 586.268861 184.929423 
L 589.378459 185.087823 
L 592.488056 184.884166 
L 595.597654 184.906795 
L 598.707251 184.97468 
L 601.816849 185.065195 
L 604.926446 184.906795 
L 608.036044 172.981538 
L 611.145641 175.31228 
L 614.255239 169.474109 
L 617.364836 175.991138 
L 620.474434 175.380166 
L 623.584032 167.143366 
L 626.693629 184.884166 
L 629.803227 184.952052 
L 632.912824 181.716166 
L 636.022422 184.861538 
L 639.132019 185.065195 
L 642.241617 181.512509 
L 645.351214 176.534223 
L 648.460812 184.001652 
L 651.570409 172.551595 
L 654.680007 175.855366 
L 657.789604 168.50108 
L 660.899202 164.156395 
L 664.008799 164.993652 
L 667.118397 164.812623 
L 670.227994 164.722109 
L 673.337592 163.839595 
L 676.447189 163.997995 
L 679.556787 163.816966 
L 682.666384 163.794338 
L 685.775982 164.133766 
L 688.88558 163.794338 
L 691.995177 163.90748 
L 695.104775 163.839595 
L 698.214372 163.952738 
L 701.32397 163.975366 
L 704.433567 164.201652 
L 707.543165 163.975366 
L 710.652762 163.90748 
L 713.76236 164.269538 
L 716.871957 163.997995 
L 719.981555 163.90748 
L 723.091152 163.997995 
L 726.20075 163.884852 
L 729.310347 163.930109 
L 732.419945 163.952738 
L 735.529542 164.020623 
L 738.63914 163.90748 
L 741.748737 163.952738 
L 744.858335 163.862223 
" clip-path="url(#p0deb0ca948)" style="fill: none; stroke: #000000; stroke-width: 1.5; stroke-linecap: square"/>
   </g>
   <g id="line2d_14">
    <path d="M 437.00818 247.927366 
L 440.117778 247.927366 
L 443.227375 247.927366 
L 446.336973 247.927366 
L 449.44657 242.411652 
L 452.556168 247.927366 
L 455.665765 241.687538 
L 458.775363 246.677138 
L 461.88496 245.653195 
L 464.994558 247.887766 
L 468.104155 247.927366 
L 471.213753 243.724109 
L 474.32335 240.103538 
L 477.432948 239.577423 
L 480.542545 238.327195 
L 483.652143 232.703995 
L 486.761741 227.476795 
L 489.871338 224.223938 
L 492.980936 220.207366 
L 496.090533 214.850052 
L 499.200131 218.612052 
L 502.309728 212.37788 
L 505.419326 206.228566 
L 508.528923 203.145423 
L 511.638521 206.375652 
L 514.748118 203.462223 
L 517.857716 197.980452 
L 520.967313 197.629709 
L 524.076911 200.961766 
L 527.186508 200.81468 
L 530.296106 199.117538 
L 533.405703 200.803366 
L 536.515301 200.605366 
L 539.624898 201.007023 
L 542.734496 193.036109 
L 545.844093 197.035709 
L 548.953691 188.634852 
L 552.063289 186.666166 
L 555.172886 187.599595 
L 558.282484 184.646566 
L 561.392081 186.145709 
L 564.501679 190.705366 
L 567.611276 188.985595 
L 570.720874 183.701823 
L 573.830471 182.16308 
L 576.940069 180.53948 
L 580.049666 184.906795 
L 583.159264 169.519366 
L 586.268861 184.674852 
L 589.378459 185.048223 
L 592.488056 184.878509 
L 595.597654 181.721823 
L 598.707251 172.749595 
L 601.816849 174.022452 
L 604.926446 164.241252 
L 608.036044 163.228623 
L 611.145641 164.886166 
L 614.255239 161.899195 
L 617.364836 160.564109 
L 620.474434 159.998395 
L 623.584032 159.127195 
L 626.693629 162.001023 
L 629.803227 164.207309 
L 632.912824 163.845252 
L 636.022422 159.783423 
L 639.132019 158.929195 
L 642.241617 156.824738 
L 645.351214 155.964852 
L 648.460812 158.340852 
L 651.570409 158.79908 
L 654.680007 156.038395 
L 657.789604 155.653709 
L 660.899202 153.430452 
L 664.008799 151.478738 
L 667.118397 156.338223 
L 670.227994 151.127995 
L 673.337592 152.547938 
L 676.447189 153.368223 
L 679.556787 154.312966 
L 682.666384 153.322966 
L 685.775982 152.474395 
L 688.88558 153.051423 
L 691.995177 153.045766 
L 695.104775 153.837766 
L 698.214372 153.000509 
L 701.32397 152.58188 
L 704.433567 153.33428 
L 707.543165 158.24468 
L 710.652762 158.765138 
L 713.76236 153.289023 
L 716.871957 153.49268 
L 719.981555 153.945252 
L 723.091152 153.53228 
L 726.20075 152.943938 
L 729.310347 153.000509 
L 732.419945 153.023138 
L 735.529542 153.232452 
L 738.63914 153.102338 
L 741.748737 153.000509 
L 744.858335 153.023138 
" clip-path="url(#p0deb0ca948)" style="fill: none; stroke: #ff0000; stroke-width: 1.5; stroke-linecap: square"/>
   </g>
   <g id="patch_6">
    <path d="M 437.00818 254.715938 
L 437.00818 32.955938 
" style="fill: none; stroke: #000000; stroke-width: 2; stroke-linejoin: miter; stroke-linecap: square"/>
   </g>
   <g id="patch_7">
    <path d="M 437.00818 254.715938 
L 732.419945 254.715938 
" style="fill: none; stroke: #000000; stroke-width: 2; stroke-linejoin: miter; stroke-linecap: square"/>
   </g>
   <g id="text_15">
    <text style="font: 26px 'DejaVu Sans'; text-anchor: middle" x="584.714062" y="26.955938" transform="rotate(-0, 584.714062, 26.955938)">Mountain Car</text>
   </g>
  </g>
  <g id="axes_3">
   <g id="patch_8">
    <path d="M 791.502298 254.715938 
L 1086.914062 254.715938 
L 1086.914062 32.955938 
L 791.502298 32.955938 
z
" style="fill: #ffffff"/>
   </g>
   <g id="PolyCollection_5">
    <path d="M 791.502298 1139.523306 
L 791.502298 1360.381957 
L 794.611895 1137.810465 
L 797.721493 724.229606 
L 800.83109 517.064902 
L 803.940688 363.936892 
L 807.050285 284.391024 
L 810.159883 279.156369 
L 813.26948 298.78066 
L 816.379078 300.408238 
L 819.488676 212.765506 
L 822.598273 190.365843 
L 825.707871 137.161265 
L 828.817468 104.132016 
L 831.927066 100.159525 
L 835.036663 99.935105 
L 838.146261 97.852937 
L 841.255858 101.098637 
L 844.365456 96.615213 
L 847.475053 108.324181 
L 850.584651 96.751677 
L 853.694248 98.43426 
L 856.803846 112.14469 
L 859.913443 104.872402 
L 863.023041 101.324194 
L 866.132638 98.13682 
L 869.242236 97.186203 
L 872.351833 97.523909 
L 875.461431 98.944688 
L 878.571028 98.874444 
L 881.680626 97.401974 
L 884.790223 101.945669 
L 887.899821 96.640109 
L 891.009419 102.445694 
L 894.119016 98.744041 
L 897.228614 105.308902 
L 900.338211 107.25195 
L 903.447809 106.043909 
L 906.557406 105.310181 
L 909.667004 100.407966 
L 912.776601 109.883312 
L 915.886199 105.783945 
L 918.995796 110.442365 
L 922.105394 107.561577 
L 925.214991 124.399565 
L 928.324589 102.416705 
L 931.434186 101.273292 
L 934.543784 103.227529 
L 937.653381 96.475004 
L 940.762979 104.201844 
L 943.872576 104.644651 
L 946.982174 124.419839 
L 950.091771 105.420587 
L 953.201369 106.06765 
L 956.310967 105.143307 
L 959.420564 99.681491 
L 962.530162 99.826661 
L 965.639759 100.468631 
L 968.749357 143.020934 
L 971.858954 141.06352 
L 974.968552 104.922428 
L 978.078149 101.032343 
L 981.187747 120.826663 
L 984.297344 117.797331 
L 987.406942 101.405168 
L 990.516539 97.525097 
L 993.626137 104.976661 
L 996.735734 101.403007 
L 999.845332 96.878007 
L 1002.954929 102.425781 
L 1006.064527 97.142829 
L 1009.174124 100.226033 
L 1012.283722 103.939851 
L 1015.393319 185.610385 
L 1018.502917 175.261867 
L 1021.612515 155.446322 
L 1024.722112 167.48537 
L 1027.83171 109.375855 
L 1030.941307 104.702707 
L 1034.050905 109.779872 
L 1037.160502 105.289363 
L 1040.2701 102.885264 
L 1043.379697 103.53973 
L 1046.489295 102.817705 
L 1049.598892 106.096733 
L 1052.70849 117.934833 
L 1055.818087 124.865604 
L 1058.927685 116.398183 
L 1062.037282 125.468586 
L 1065.14688 112.40716 
L 1068.256477 132.83922 
L 1071.366075 100.765617 
L 1074.475672 126.563721 
L 1077.58527 108.250197 
L 1080.694867 111.756895 
L 1083.804465 134.769119 
L 1086.914062 110.727697 
L 1090.02366 97.234719 
L 1093.133258 105.12814 
L 1096.242855 111.713055 
L 1099.352453 185.767707 
L 1099.352453 64.694104 
L 1099.352453 64.694104 
L 1096.242855 92.970822 
L 1093.133258 94.10687 
L 1090.02366 92.86447 
L 1086.914062 93.442137 
L 1083.804465 90.331117 
L 1080.694867 91.348827 
L 1077.58527 92.149632 
L 1074.475672 84.147807 
L 1071.366075 91.565196 
L 1068.256477 90.813412 
L 1065.14688 91.757317 
L 1062.037282 92.389219 
L 1058.927685 89.22082 
L 1055.818087 88.376126 
L 1052.70849 92.986388 
L 1049.598892 91.514829 
L 1046.489295 92.369701 
L 1043.379697 92.568274 
L 1040.2701 92.80733 
L 1037.160502 90.893649 
L 1034.050905 91.635921 
L 1030.941307 91.414242 
L 1027.83171 88.83335 
L 1024.722112 69.647847 
L 1021.612515 72.685345 
L 1018.502917 65.758599 
L 1015.393319 76.608457 
L 1012.283722 92.259753 
L 1009.174124 91.534249 
L 1006.064527 92.442769 
L 1002.954929 90.274064 
L 999.845332 91.288116 
L 996.735734 91.379501 
L 993.626137 92.620883 
L 990.516539 91.992865 
L 987.406942 93.042469 
L 984.297344 90.213849 
L 981.187747 88.074869 
L 978.078149 91.577134 
L 974.968552 92.336161 
L 971.858954 84.65977 
L 968.749357 77.583041 
L 965.639759 91.976552 
L 962.530162 90.252387 
L 959.420564 91.185259 
L 956.310967 90.22051 
L 953.201369 91.714331 
L 950.091771 92.182702 
L 946.982174 85.091211 
L 943.872576 88.390218 
L 940.762979 92.146358 
L 937.653381 91.983017 
L 934.543784 89.985133 
L 931.434186 92.4617 
L 928.324589 91.250923 
L 925.214991 87.607689 
L 922.105394 89.269572 
L 918.995796 89.66478 
L 915.886199 92.239431 
L 912.776601 94.371452 
L 909.667004 91.902414 
L 906.557406 95.456402 
L 903.447809 92.35748 
L 900.338211 91.080482 
L 897.228614 92.621471 
L 894.119016 93.929985 
L 891.009419 91.68075 
L 887.899821 92.924622 
L 884.790223 93.122021 
L 881.680626 92.309631 
L 878.571028 92.273005 
L 875.461431 93.107699 
L 872.351833 91.642331 
L 869.242236 92.509138 
L 866.132638 91.91636 
L 863.023041 93.653506 
L 859.913443 90.948203 
L 856.803846 86.65977 
L 853.694248 91.277271 
L 850.584651 91.170856 
L 847.475053 87.587576 
L 844.365456 91.439111 
L 841.255858 92.115108 
L 838.146261 89.79693 
L 835.036663 89.942056 
L 831.927066 89.758859 
L 828.817468 89.821757 
L 825.707871 76.997321 
L 822.598273 57.297034 
L 819.488676 50.530069 
L 816.379078 29.313083 
L 813.26948 25.276521 
L 810.159883 54.970956 
L 807.050285 81.316079 
L 803.940688 104.065767 
L 800.83109 168.4796 
L 797.721493 512.801351 
L 794.611895 889.075884 
L 791.502298 1139.523306 
z
" clip-path="url(#p59284c4757)" style="fill-opacity: 0.1; stroke: #000000; stroke-opacity: 0.1"/>
   </g>
   <g id="PolyCollection_6">
    <path d="M 791.502298 1124.437017 
L 791.502298 1261.869028 
L 794.611895 754.176524 
L 797.721493 461.565098 
L 800.83109 355.53241 
L 803.940688 317.512008 
L 807.050285 227.732946 
L 810.159883 202.299847 
L 813.26948 216.820946 
L 816.379078 194.916464 
L 819.488676 182.157088 
L 822.598273 171.77089 
L 825.707871 162.0961 
L 828.817468 150.5824 
L 831.927066 147.266691 
L 835.036663 142.587423 
L 838.146261 136.505505 
L 841.255858 122.563049 
L 844.365456 105.767691 
L 847.475053 104.449268 
L 850.584651 106.871578 
L 853.694248 107.494926 
L 856.803846 103.819766 
L 859.913443 103.062412 
L 863.023041 105.564149 
L 866.132638 104.376336 
L 869.242236 102.767252 
L 872.351833 98.77044 
L 875.461431 106.12019 
L 878.571028 107.343719 
L 881.680626 103.507624 
L 884.790223 100.489386 
L 887.899821 110.027811 
L 891.009419 100.997106 
L 894.119016 104.076039 
L 897.228614 105.506899 
L 900.338211 101.149895 
L 903.447809 102.018888 
L 906.557406 101.323681 
L 909.667004 99.599985 
L 912.776601 99.646262 
L 915.886199 102.560771 
L 918.995796 99.788415 
L 922.105394 109.478066 
L 925.214991 102.054981 
L 928.324589 100.096401 
L 931.434186 100.056646 
L 934.543784 104.324705 
L 937.653381 101.18597 
L 940.762979 98.536077 
L 943.872576 102.118967 
L 946.982174 103.04947 
L 950.091771 100.635985 
L 953.201369 102.661821 
L 956.310967 98.083505 
L 959.420564 97.581468 
L 962.530162 101.650812 
L 965.639759 106.469195 
L 968.749357 99.600922 
L 971.858954 104.170334 
L 974.968552 99.563777 
L 978.078149 101.99794 
L 981.187747 100.719487 
L 984.297344 102.407551 
L 987.406942 101.095809 
L 990.516539 116.771985 
L 993.626137 102.892838 
L 996.735734 97.198637 
L 999.845332 116.014079 
L 1002.954929 102.734146 
L 1006.064527 97.914422 
L 1009.174124 105.037768 
L 1012.283722 99.700556 
L 1015.393319 100.523649 
L 1018.502917 100.76119 
L 1021.612515 107.489339 
L 1024.722112 108.097164 
L 1027.83171 100.926525 
L 1030.941307 99.976423 
L 1034.050905 105.891826 
L 1037.160502 98.92813 
L 1040.2701 104.159532 
L 1043.379697 102.891129 
L 1046.489295 100.476336 
L 1049.598892 100.335688 
L 1052.70849 115.435647 
L 1055.818087 101.35985 
L 1058.927685 101.872059 
L 1062.037282 98.358095 
L 1065.14688 97.432549 
L 1068.256477 100.503511 
L 1071.366075 101.999996 
L 1074.475672 99.00266 
L 1077.58527 101.777158 
L 1080.694867 109.840348 
L 1083.804465 108.861014 
L 1086.914062 104.545925 
L 1090.02366 99.250976 
L 1093.133258 176.777737 
L 1096.242855 99.827196 
L 1099.352453 107.1305 
L 1099.352453 95.088701 
L 1099.352453 95.088701 
L 1096.242855 94.374654 
L 1093.133258 73.975374 
L 1090.02366 94.560209 
L 1086.914062 95.4085 
L 1083.804465 94.378963 
L 1080.694867 95.572551 
L 1077.58527 93.221128 
L 1074.475672 94.368737 
L 1071.366075 93.563614 
L 1068.256477 94.283291 
L 1065.14688 93.791573 
L 1062.037282 94.305537 
L 1058.927685 95.53776 
L 1055.818087 95.650126 
L 1052.70849 93.300272 
L 1049.598892 95.558448 
L 1046.489295 94.203263 
L 1043.379697 93.473785 
L 1040.2701 95.696668 
L 1037.160502 94.435589 
L 1034.050905 96.464021 
L 1030.941307 94.747683 
L 1027.83171 95.182324 
L 1024.722112 94.705039 
L 1021.612515 92.407483 
L 1018.502917 94.771739 
L 1015.393319 94.916335 
L 1012.283722 94.043819 
L 1009.174124 95.084727 
L 1006.064527 94.779052 
L 1002.954929 93.223684 
L 999.845332 91.145583 
L 996.735734 94.163154 
L 993.626137 96.340861 
L 990.516539 90.494598 
L 987.406942 95.62949 
L 984.297344 95.133698 
L 981.187747 94.746638 
L 978.078149 93.562567 
L 974.968552 94.883032 
L 971.858954 92.885625 
L 968.749357 94.7547 
L 965.639759 94.065606 
L 962.530162 92.69584 
L 959.420564 93.78739 
L 956.310967 94.758822 
L 953.201369 93.633533 
L 950.091771 95.265106 
L 946.982174 96.182505 
L 943.872576 96.424644 
L 940.762979 94.311172 
L 937.653381 94.270662 
L 934.543784 95.579392 
L 931.434186 96.08219 
L 928.324589 95.75712 
L 925.214991 96.206518 
L 922.105394 94.490334 
L 918.995796 95.66449 
L 915.886199 96.447854 
L 912.776601 95.315778 
L 909.667004 95.300031 
L 906.557406 96.694354 
L 903.447809 96.562031 
L 900.338211 95.985545 
L 897.228614 96.206855 
L 894.119016 97.764451 
L 891.009419 96.798067 
L 887.899821 95.970379 
L 884.790223 95.496416 
L 881.680626 97.329585 
L 878.571028 97.304197 
L 875.461431 95.763995 
L 872.351833 95.601618 
L 869.242236 96.995696 
L 866.132638 97.239143 
L 863.023041 98.143935 
L 859.913443 96.921918 
L 856.803846 98.000085 
L 853.694248 100.463898 
L 850.584651 99.740952 
L 847.475053 98.283441 
L 844.365456 99.25735 
L 841.255858 97.00946 
L 838.146261 93.521959 
L 835.036663 95.227042 
L 831.927066 97.057691 
L 828.817468 98.832119 
L 825.707871 101.54315 
L 822.598273 102.810269 
L 819.488676 105.619129 
L 816.379078 110.952335 
L 813.26948 116.310751 
L 810.159883 110.391257 
L 807.050285 125.380881 
L 803.940688 182.021016 
L 800.83109 217.757253 
L 797.721493 319.665353 
L 794.611895 619.924109 
L 791.502298 1124.437017 
z
" clip-path="url(#p59284c4757)" style="fill: #ff0000; fill-opacity: 0.1; stroke: #ff0000; stroke-opacity: 0.1"/>
   </g>
   <g id="matplotlib.axis_5">
    <g id="xtick_5">
     <g id="line2d_15">
      <g>
       <use xlink:href="#m50a6fe1cf5" x="791.502298" y="254.715938" style="stroke: #000000; stroke-width: 0.8"/>
      </g>
     </g>
     <g id="text_16">
      <text style="font: 18px 'DejaVu Sans'; text-anchor: middle" x="791.502298" y="275.393125" transform="rotate(-0, 791.502298, 275.393125)">0</text>
     </g>
    </g>
    <g id="xtick_6">
     <g id="line2d_16">
      <g>
       <use xlink:href="#m50a6fe1cf5" x="1086.914062" y="254.715938" style="stroke: #000000; stroke-width: 0.8"/>
      </g>
     </g>
     <g id="text_17">
      <text style="font: 18px 'DejaVu Sans'; text-anchor: middle" x="1086.914062" y="275.393125" transform="rotate(-0, 1086.914062, 275.393125)">1</text>
     </g>
    </g>
    <g id="text_18">
     <text style="font: 18px 'DejaVu Sans'" transform="translate(890.170836 277.81375)">Timesteps </text>
     <text style="font: 18px 'DejaVu Sans'" transform="translate(825.742086 297.969813)">(Hundreds of Thousands)</text>
    </g>
   </g>
   <g id="matplotlib.axis_6">
    <g id="ytick_7">
     <g id="line2d_17">
      <g>
       <use xlink:href="#md28809f346" x="791.502298" y="254.715938" style="stroke: #000000; stroke-width: 0.8"/>
      </g>
     </g>
     <g id="text_19">
      <text style="font: 18px 'DejaVu Sans'; text-anchor: end" x="784.502298" y="261.554531" transform="rotate(-0, 784.502298, 261.554531)">700</text>
     </g>
    </g>
    <g id="ytick_8">
     <g id="line2d_18">
      <g>
       <use xlink:href="#md28809f346" x="791.502298" y="143.835938" style="stroke: #000000; stroke-width: 0.8"/>
      </g>
     </g>
     <g id="text_20">
      <text style="font: 18px 'DejaVu Sans'; text-anchor: end" x="784.502298" y="150.674531" transform="rotate(-0, 784.502298, 150.674531)">850</text>
     </g>
    </g>
    <g id="ytick_9">
     <g id="line2d_19">
      <g>
       <use xlink:href="#md28809f346" x="791.502298" y="32.955938" style="stroke: #000000; stroke-width: 0.8"/>
      </g>
     </g>
     <g id="text_21">
      <text style="font: 18px 'DejaVu Sans'; text-anchor: end" x="784.502298" y="39.794531" transform="rotate(-0, 784.502298, 39.794531)">1000</text>
     </g>
    </g>
   </g>
   <g id="line2d_20">
    <path d="M 801.77048 309.91325 
L 803.940688 234.001329 
L 807.050285 182.853551 
L 810.159883 167.063662 
L 813.26948 162.02859 
L 816.379078 164.86066 
L 819.488676 131.647788 
L 822.598273 123.831438 
L 825.707871 107.079293 
L 828.817468 96.976887 
L 831.927066 94.959192 
L 835.036663 94.93858 
L 838.146261 93.824933 
L 841.255858 96.606872 
L 844.365456 94.027162 
L 847.475053 97.955878 
L 850.584651 93.961266 
L 853.694248 94.855766 
L 856.803846 99.40223 
L 859.913443 97.910303 
L 863.023041 97.48885 
L 866.132638 95.02659 
L 869.242236 94.847671 
L 872.351833 94.58312 
L 875.461431 96.026193 
L 878.571028 95.573724 
L 881.680626 94.855803 
L 884.790223 97.533845 
L 887.899821 94.782365 
L 891.009419 97.063222 
L 894.119016 96.337013 
L 897.228614 98.965187 
L 900.338211 99.166216 
L 903.447809 99.200694 
L 906.557406 100.383292 
L 909.667004 96.15519 
L 912.776601 102.127382 
L 915.886199 99.011688 
L 918.995796 100.053573 
L 922.105394 98.415574 
L 925.214991 106.003627 
L 928.324589 96.833814 
L 931.434186 96.867496 
L 934.543784 96.606331 
L 937.653381 94.22901 
L 940.762979 98.174101 
L 943.872576 96.517434 
L 946.982174 104.755525 
L 950.091771 98.801645 
L 953.201369 98.89099 
L 956.310967 97.681908 
L 959.420564 95.433375 
L 962.530162 95.039524 
L 965.639759 96.222591 
L 968.749357 110.301988 
L 971.858954 112.861645 
L 974.968552 98.629294 
L 978.078149 96.304739 
L 981.187747 104.450766 
L 984.297344 104.00559 
L 987.406942 97.223818 
L 990.516539 94.758981 
L 993.626137 98.798772 
L 996.735734 96.391254 
L 999.845332 94.083061 
L 1002.954929 96.349923 
L 1006.064527 94.792799 
L 1009.174124 95.880141 
L 1012.283722 98.099802 
L 1015.393319 131.109421 
L 1018.502917 120.510233 
L 1021.612515 114.065834 
L 1024.722112 118.566608 
L 1027.83171 99.104603 
L 1030.941307 98.058474 
L 1034.050905 100.707897 
L 1037.160502 98.091506 
L 1040.2701 97.846297 
L 1043.379697 98.054002 
L 1046.489295 97.593703 
L 1049.598892 98.805781 
L 1052.70849 105.46061 
L 1055.818087 106.620865 
L 1058.927685 102.809501 
L 1062.037282 108.928903 
L 1065.14688 102.082239 
L 1068.256477 111.826316 
L 1071.366075 96.165407 
L 1074.475672 105.355764 
L 1077.58527 100.199915 
L 1080.694867 101.552861 
L 1083.804465 112.550118 
L 1086.914062 102.084917 
L 1090.02366 95.049595 
L 1093.133258 99.617505 
L 1096.242855 102.341938 
L 1099.352453 125.230905 
" clip-path="url(#p59284c4757)" style="fill: none; stroke: #000000; stroke-width: 1.5; stroke-linecap: square"/>
   </g>
   <g id="line2d_21">
    <path d="M 800.135167 309.91325 
L 800.83109 286.644831 
L 803.940688 249.766512 
L 807.050285 176.556913 
L 810.159883 156.345552 
L 813.26948 166.565848 
L 816.379078 152.9344 
L 819.488676 143.888108 
L 822.598273 137.29058 
L 825.707871 131.819625 
L 828.817468 124.707259 
L 831.927066 122.162191 
L 835.036663 118.907233 
L 838.146261 115.013732 
L 841.255858 109.786254 
L 844.365456 102.512521 
L 847.475053 101.366354 
L 850.584651 103.306265 
L 853.694248 103.979412 
L 856.803846 100.909925 
L 859.913443 99.992165 
L 863.023041 101.854042 
L 866.132638 100.80774 
L 869.242236 99.881474 
L 872.351833 97.186029 
L 875.461431 100.942093 
L 878.571028 102.323958 
L 881.680626 100.418604 
L 884.790223 97.992901 
L 887.899821 102.999095 
L 891.009419 98.897587 
L 894.119016 100.920245 
L 897.228614 100.856877 
L 900.338211 98.56772 
L 903.447809 99.290459 
L 906.557406 99.009017 
L 909.667004 97.450008 
L 912.776601 97.48102 
L 915.886199 99.504313 
L 918.995796 97.726452 
L 922.105394 101.9842 
L 925.214991 99.13075 
L 928.324589 97.92676 
L 931.434186 98.069418 
L 934.543784 99.952048 
L 937.653381 97.728316 
L 940.762979 96.423625 
L 943.872576 99.271805 
L 946.982174 99.615988 
L 950.091771 97.950545 
L 953.201369 98.147677 
L 956.310967 96.421164 
L 959.420564 95.684429 
L 962.530162 97.173326 
L 965.639759 100.2674 
L 968.749357 97.177811 
L 971.858954 98.52798 
L 974.968552 97.223405 
L 978.078149 97.780254 
L 981.187747 97.733063 
L 984.297344 98.770625 
L 987.406942 98.362649 
L 990.516539 103.633291 
L 993.626137 99.61685 
L 996.735734 95.680895 
L 999.845332 103.579831 
L 1002.954929 97.978915 
L 1006.064527 96.346737 
L 1009.174124 100.061247 
L 1012.283722 96.872188 
L 1015.393319 97.719992 
L 1018.502917 97.766465 
L 1021.612515 99.948411 
L 1024.722112 101.401102 
L 1027.83171 98.054424 
L 1030.941307 97.362053 
L 1034.050905 101.177924 
L 1037.160502 96.681859 
L 1040.2701 99.9281 
L 1043.379697 98.182457 
L 1046.489295 97.3398 
L 1049.598892 97.947068 
L 1052.70849 104.36796 
L 1055.818087 98.504988 
L 1058.927685 98.704909 
L 1062.037282 96.331816 
L 1065.14688 95.612061 
L 1068.256477 97.393401 
L 1071.366075 97.781805 
L 1074.475672 96.685698 
L 1077.58527 97.499143 
L 1080.694867 102.70645 
L 1083.804465 101.619989 
L 1086.914062 99.977212 
L 1090.02366 96.905592 
L 1093.133258 125.376555 
L 1096.242855 97.100925 
L 1099.352453 101.1096 
" clip-path="url(#p59284c4757)" style="fill: none; stroke: #ff0000; stroke-width: 1.5; stroke-linecap: square"/>
   </g>
   <g id="patch_9">
    <path d="M 791.502298 254.715938 
L 791.502298 32.955938 
" style="fill: none; stroke: #000000; stroke-width: 2; stroke-linejoin: miter; stroke-linecap: square"/>
   </g>
   <g id="patch_10">
    <path d="M 791.502298 254.715938 
L 1086.914062 254.715938 
" style="fill: none; stroke: #000000; stroke-width: 2; stroke-linejoin: miter; stroke-linecap: square"/>
   </g>
   <g id="text_22">
    <text style="font: 26px 'DejaVu Sans'; text-anchor: middle" x="939.20818" y="26.955938" transform="rotate(-0, 939.20818, 26.955938)">Pendulum</text>
   </g>
   <g id="legend_1">
    <g id="patch_11">
     <path d="M 877.417592 248.063138 
L 1082.872592 248.063138 
Q 1086.072592 248.063138 1086.072592 244.863138 
L 1086.072592 199.493138 
Q 1086.072592 196.293138 1082.872592 196.293138 
L 877.417592 196.293138 
Q 874.217592 196.293138 874.217592 199.493138 
L 874.217592 244.863138 
Q 874.217592 248.063138 877.417592 248.063138 
z
" style="fill: #ffffff; opacity: 0.8; stroke: #cccccc; stroke-linejoin: miter"/>
    </g>
    <g id="line2d_22">
     <path d="M 880.617592 209.250638 
L 896.617592 209.250638 
L 912.617592 209.250638 
" style="fill: none; stroke: #000000; stroke-width: 1.5; stroke-linecap: square"/>
    </g>
    <g id="text_23">
     <text style="font: 16px 'DejaVu Sans'; text-anchor: start" x="925.417592" y="214.850638" transform="rotate(-0, 925.417592, 214.850638)">SAC (Auto Entropy)</text>
    </g>
    <g id="line2d_23">
     <path d="M 880.617592 232.735638 
L 896.617592 232.735638 
L 912.617592 232.735638 
" style="fill: none; stroke: #ff0000; stroke-width: 1.5; stroke-linecap: square"/>
    </g>
    <g id="text_24">
     <text style="font: 16px 'DejaVu Sans'; text-anchor: start" x="925.417592" y="238.335638" transform="rotate(-0, 925.417592, 238.335638)">SAC</text>
    </g>
   </g>
  </g>
 </g>
 <defs>
  <clipPath id="pa3b3aa2e0a">
   <rect x="82.514063" y="32.955938" width="295.411765" height="221.76"/>
  </clipPath>
  <clipPath id="p0deb0ca948">
   <rect x="437.00818" y="32.955938" width="295.411765" height="221.76"/>
  </clipPath>
  <clipPath id="p59284c4757">
   <rect x="791.502298" y="32.955938" width="295.411765" height="221.76"/>
  </clipPath>
 </defs>
</svg>
