<?xml version="1.0" encoding="UTF-8" standalone="no"?>
<!-- Created with Inkscape (http://www.inkscape.org/) -->

<svg
   version="1.1"
   id="svg2"
   width="566.66663"
   height="793.49164"
   viewBox="0 0 566.66663 793.49165"
   sodipodi:docname="CCEMOverTime_v2.svg"
   inkscape:version="1.2 (1:1.2.1+202207142221+cd75a1ee6d)"
   xmlns:inkscape="http://www.inkscape.org/namespaces/inkscape"
   xmlns:sodipodi="http://sodipodi.sourceforge.net/DTD/sodipodi-0.dtd"
   xmlns="http://www.w3.org/2000/svg"
   xmlns:svg="http://www.w3.org/2000/svg">
  <defs
     id="defs6">
    <marker
       style="overflow:visible"
       id="marker8099"
       refX="0"
       refY="0"
       orient="auto-start-reverse"
       inkscape:stockid="TriangleStart"
       markerWidth="5.3244081"
       markerHeight="6.155385"
       viewBox="0 0 5.3244081 6.1553851"
       inkscape:isstock="true"
       inkscape:collect="always"
       preserveAspectRatio="xMidYMid"
       markerUnits="strokeWidth">
      <path
         transform="scale(0.5)"
         style="fill:context-stroke;fill-rule:evenodd;stroke:context-stroke;stroke-width:1pt"
         d="M 5.77,0 -2.88,5 V -5 Z"
         id="path8097" />
    </marker>
    <rect
       x="30.375"
       y="625.85156"
       width="518.59375"
       height="41.042969"
       id="rect3669" />
    <rect
       x="90.66671"
       y="522.78705"
       width="227.84453"
       height="125.90929"
       id="rect3525" />
    <rect
       x="84.872719"
       y="540.36908"
       width="176.23802"
       height="126.03602"
       id="rect3519" />
    <rect
       x="338.93997"
       y="567.23279"
       width="226.51543"
       height="112.01817"
       id="rect3442" />
    <rect
       x="327.29489"
       y="245.02496"
       width="236.69971"
       height="51.118885"
       id="rect3436" />
    <clipPath
       clipPathUnits="userSpaceOnUse"
       id="clipPath20">
      <path
         d="M 0,0 H 425 V 513 H 0 Z"
         id="path18" />
    </clipPath>
    <clipPath
       clipPathUnits="userSpaceOnUse"
       id="clipPath32">
      <path
         d="m 0.5,0 h 424 V 513 H 0.5 Z"
         id="path30" />
    </clipPath>
    <clipPath
       clipPathUnits="userSpaceOnUse"
       id="clipPath128">
      <path
         d="M 63,0 H 245.309 V 22.19999 H 63 Z"
         id="path126" />
    </clipPath>
    <clipPath
       clipPathUnits="userSpaceOnUse"
       id="clipPath156">
      <path
         d="m 299,2.396739 h 78.00697 v 17.40651 H 299 Z"
         id="path154" />
    </clipPath>
    <clipPath
       clipPathUnits="userSpaceOnUse"
       id="clipPath178">
      <path
         d="m 12.5,41 h 52 v 17 h -52 z"
         id="path176" />
    </clipPath>
    <clipPath
       clipPathUnits="userSpaceOnUse"
       id="clipPath200">
      <path
         d="M 13.5,81 H 64.244 V 98 H 13.5 Z"
         id="path198" />
    </clipPath>
    <clipPath
       clipPathUnits="userSpaceOnUse"
       id="clipPath220">
      <path
         d="m 13.5,81 h 51 v 17 h -51 z"
         id="path218" />
    </clipPath>
    <clipPath
       clipPathUnits="userSpaceOnUse"
       id="clipPath230">
      <path
         d="m 12.5,119 h 51 v 17 h -51 z"
         id="path228" />
    </clipPath>
    <clipPath
       clipPathUnits="userSpaceOnUse"
       id="clipPath252">
      <path
         d="m 13.5,163.8 h 52 v 17 h -52 z"
         id="path250" />
    </clipPath>
    <clipPath
       clipPathUnits="userSpaceOnUse"
       id="clipPath274">
      <path
         d="m 13.5,217.5 h 52 v 17 h -52 z"
         id="path272" />
    </clipPath>
    <clipPath
       clipPathUnits="userSpaceOnUse"
       id="clipPath296">
      <path
         d="m 13.5,272.5 h 51 v 17 h -51 z"
         id="path294" />
    </clipPath>
    <rect
       x="30.375"
       y="625.85156"
       width="518.59375"
       height="41.042969"
       id="rect3669-3" />
    <rect
       x="30.375"
       y="625.85156"
       width="518.59375"
       height="41.042969"
       id="rect3669-7" />
    <rect
       x="30.375"
       y="625.85156"
       width="518.59375"
       height="41.042969"
       id="rect3669-7-3" />
    <rect
       x="30.375"
       y="625.85156"
       width="518.59375"
       height="41.042969"
       id="rect3669-7-6" />
    <rect
       x="30.375"
       y="625.85156"
       width="518.59375"
       height="41.042969"
       id="rect3669-7-9" />
    <rect
       x="30.375"
       y="625.85156"
       width="518.59375"
       height="41.042969"
       id="rect3669-7-2" />
  </defs>
  <sodipodi:namedview
     id="namedview4"
     pagecolor="#505050"
     bordercolor="#eeeeee"
     borderopacity="1"
     inkscape:showpageshadow="0"
     inkscape:pageopacity="0"
     inkscape:pagecheckerboard="0"
     inkscape:deskcolor="#505050"
     showgrid="false"
     inkscape:zoom="1"
     inkscape:cx="259.5"
     inkscape:cy="423"
     inkscape:window-width="1920"
     inkscape:window-height="1080"
     inkscape:window-x="0"
     inkscape:window-y="0"
     inkscape:window-maximized="1"
     inkscape:current-layer="g10"
     inkscape:lockguides="true">
    <inkscape:page
       x="0"
       y="0"
       id="page8"
       width="566.66663"
       height="793.49164" />
  </sodipodi:namedview>
  <g
     id="g10"
     inkscape:groupmode="layer"
     inkscape:label="Page 1"
     transform="matrix(1.3333333,0,0,-1.3333333,0,786.74909)">
    <g
       id="g12" />
    <g
       id="g14"
       transform="matrix(1,0,0,1.1600755,0,-5.0569029)"
       style="stroke:none;stroke-opacity:1">
      <g
         id="g16"
         clip-path="url(#clipPath20)"
         style="stroke:none;stroke-opacity:1">
        <path
           d="M 0,0 H 425 V 513 H 0 Z"
           style="fill:#ffffff;fill-opacity:1;fill-rule:nonzero;stroke:none;stroke-opacity:1"
           id="path22" />
        <path
           d="M 0,0 H 425 V 513 H 0 Z"
           style="fill:#ffffff;fill-opacity:1;fill-rule:nonzero;stroke:none;stroke-opacity:1"
           id="path24" />
      </g>
    </g>
    <g
       id="g26">
      <g
         id="g28"
         clip-path="url(#clipPath32)">
        <g
           id="g34"
           transform="matrix(-1.000304,0,0,-1.000211,666.6131,513.0541)"
           style="stroke:#000000;stroke-opacity:1">
          <path
             d="M 347.961,233.422 V 485.945"
             style="fill:none;stroke:#000000;stroke-width:2.25;stroke-linecap:round;stroke-linejoin:round;stroke-miterlimit:4;stroke-dasharray:9, 9;stroke-dashoffset:0;stroke-opacity:1"
             id="path36" />
        </g>
        <g
           id="g38"
           transform="matrix(-1.000304,0,0,-1.000211,301.27517,513.0541)"
           style="stroke:#000000;stroke-opacity:1">
          <path
             d="M 164.961,233.422 V 485.945"
             style="fill:none;stroke:#000000;stroke-width:2.25;stroke-linecap:round;stroke-linejoin:round;stroke-miterlimit:4;stroke-dasharray:9, 9;stroke-dashoffset:0;stroke-opacity:1"
             id="path40" />
        </g>
        <path
           d="m 227.04158,42.935 -7.45927,0.19204 -5.09956,0.28906 -4.04723,0.39108 -3.44304,0.50011 -3.05894,0.60513 -2.81784,0.72715 -2.6488,0.85918 -2.5398,0.99621 -2.4968,1.15624 -2.4817,1.33629 -2.5438,1.56333 -2.6608,1.83238 -2.9389,2.23047 -3.5791,2.93862 -9.2998,7.75163 -2.5278,1.81639 -2.1606,1.35628 -1.9496,1.03122 -1.7976,0.76516 -1.7035,0.54312 -1.6295,0.34807 -1.5825,0.17204 h -1.5674 l -1.5665,-0.16404 -1.6025,-0.33607 -1.6565,-0.52311 -1.7345,-0.72315 -1.8606,-0.9572 -2.0236,-1.24227 -2.2817,-1.59833 -2.7238,-2.12545 -3.9152,-3.28569 -6.514,-5.46615 -3.165,-2.42252 -2.7858,-1.9264 -2.6058,-1.59734 -2.5248,-1.35628 -2.5128,-1.16025 -2.5437,-0.99221 -2.6328,-0.84417 -2.7709,-0.71115 -2.9809,-0.59413 -3.306,-0.4801 -3.775097,-0.37908 -4.5364,-0.28106 -5.9078,-0.19204 -8.9637,-0.10102 -3.3171,-0.012"
           style="fill:#fb0006;fill-opacity:0.33000004;fill-rule:nonzero;stroke:none"
           id="path42" />
        <g
           id="g44"
           transform="matrix(-1.000304,0,0,-1.000211,301.27517,513.0541)"
           style="stroke:#fb0006;stroke-opacity:1">
          <path
             d="m 74.211,470.02 7.457,-0.192 5.098,-0.289 4.046,-0.391 3.442,-0.5 3.058,-0.605 2.817,-0.727 2.648,-0.859 2.539,-0.996 2.496,-1.156 2.481,-1.336 2.543,-1.563 2.66,-1.832 2.938,-2.23 3.578,-2.938 9.297,-7.75 2.527,-1.816 2.16,-1.356 1.949,-1.031 1.797,-0.765 1.703,-0.543 1.629,-0.348 1.582,-0.172 h 1.567 l 1.566,0.164 1.602,0.336 1.656,0.523 1.734,0.723 1.86,0.957 2.023,1.242 2.281,1.598 2.723,2.125 3.914,3.285 6.512,5.465 3.164,2.422 2.785,1.926 2.605,1.597 2.524,1.356 2.512,1.16 2.543,0.992 2.632,0.844 2.77,0.711 2.98,0.594 3.305,0.48 3.774,0.379 4.535,0.281 5.906,0.192 8.961,0.101 3.316,0.012"
             style="fill:none;stroke:#fb0006;stroke-width:3;stroke-linecap:square;stroke-linejoin:round;stroke-miterlimit:4;stroke-dasharray:none;stroke-opacity:1"
             id="path46" />
        </g>
        <path
           d="m 409.70693,42.935 -7.4593,0.19204 -5.0995,0.28906 -4.0523,0.39108 -3.438,0.50011 -3.0599,0.60513 -2.8169,0.72715 -2.6498,0.85918 -2.5398,0.99621 -2.4967,1.15624 -2.4808,1.33629 -2.5438,1.56333 -2.6648,1.83238 -2.9389,2.23047 -3.5751,2.93862 -9.3038,7.75163 -2.5238,1.81639 -2.1606,1.35628 -1.9496,1.03122 -1.7976,0.76516 -1.7035,0.54312 -1.6295,0.34807 -1.5825,0.17204 h -1.5674 l -1.5705,-0.16404 -1.5985,-0.33607 -1.6565,-0.52311 -1.7385,-0.72315 -1.8566,-0.9572 -2.0236,-1.24227 -2.2817,-1.59833 -2.7278,-2.12545 -3.9112,-3.28569 -6.514,-5.46615 -3.169,-2.42252 -2.7858,-1.9264 -2.6028,-1.59734 -2.5278,-1.35628 -2.5087,-1.16025 -2.5438,-0.99221 -2.6338,-0.84417 -2.7699,-0.71115 -2.9849,-0.59413 -3.302,-0.4801 -3.7751,-0.37908 -4.5364,-0.28106 -5.9078,-0.19204 -8.9637,-0.10102 -3.321,-0.012"
           style="fill:#000000;fill-opacity:0.33000004;fill-rule:nonzero;stroke:none"
           id="path48" />
        <g
           id="g50"
           transform="matrix(-1.000304,0,0,-1.000211,666.6131,513.0541)"
           style="stroke:#000006;stroke-opacity:1;stroke-width:2.99922778;stroke-dasharray:none">
          <path
             d="m 256.828,470.02 7.457,-0.192 5.098,-0.289 4.051,-0.391 3.437,-0.5 3.059,-0.605 2.816,-0.727 2.649,-0.859 2.539,-0.996 2.496,-1.156 2.48,-1.336 2.543,-1.563 2.664,-1.832 2.938,-2.23 3.574,-2.938 9.301,-7.75 2.523,-1.816 2.16,-1.356 1.949,-1.031 1.797,-0.765 1.703,-0.543 1.629,-0.348 1.582,-0.172 h 1.567 l 1.57,0.164 1.598,0.336 1.656,0.523 1.738,0.723 1.856,0.957 2.023,1.242 2.281,1.598 2.727,2.125 3.91,3.285 6.512,5.465 3.168,2.422 2.785,1.926 2.602,1.597 2.527,1.356 2.508,1.16 2.543,0.992 2.633,0.844 2.769,0.711 2.984,0.594 3.301,0.48 3.774,0.379 4.535,0.281 5.906,0.192 8.961,0.101 3.32,0.012"
             style="fill:none;stroke:#000006;stroke-width:2.99922778;stroke-linecap:square;stroke-linejoin:round;stroke-miterlimit:4;stroke-dasharray:none;stroke-opacity:1"
             id="path52" />
        </g>
        <path
           d="m 227.04158,82.12726 -5.87679,0.21104 -4.18528,0.30907 -3.37902,0.41409 -2.89188,0.5191 -2.59079,0.63314 -2.38773,0.75016 -2.25469,0.88718 -2.1607,1.02722 -2.1176,1.18825 -2.1136,1.38229 -2.1607,1.61434 -2.2547,1.8944 -2.4347,2.27448 -2.8019,2.8516 -4.0472,4.39588 -4.5994,4.9301 -2.4498,2.3795 -2.0086,1.7274 -1.7665,1.3012 -1.5975,0.9762 -1.4774,0.7112 -1.4025,0.4921 -1.3364,0.297 -1.3134,0.1251 -1.3084,-0.047 -1.3094,-0.2111 -1.3364,-0.3861 -1.4024,-0.5821 -1.4775,-0.8012 -1.5824,-1.0552 -1.7346,-1.3593 -1.9656,-1.7583 -2.3567,-2.3445 -3.321,-3.5628 -6.1499,-6.62237 -2.7548,-2.69657 -2.4187,-2.13645 -2.2547,-1.77438 -2.1767,-1.50431 -2.1446,-1.27727 -2.1647,-1.09823 -2.2047,-0.9292 -2.3007,-0.78917 -2.4507,-0.66514 -2.6798,-0.55011 -2.9969,-0.43809 -3.5011,-0.34008 -4.3263,-0.24605 -5.8878,-0.15203 -10.035097,-0.07401 -16.391,-0.008"
           style="fill:#fb0006;fill-opacity:0.33000004;fill-rule:nonzero;stroke:none"
           id="path54" />
        <g
           id="g56"
           transform="matrix(-1.000304,0,0,-1.000211,301.27517,513.0541)"
           style="stroke:#fb0006;stroke-opacity:1">
          <path
             d="m 74.211,430.836 5.875,-0.211 4.184,-0.309 3.378,-0.414 2.891,-0.519 2.59,-0.633 2.387,-0.75 2.254,-0.887 2.16,-1.027 2.117,-1.188 2.113,-1.382 2.16,-1.614 2.254,-1.894 2.434,-2.274 2.801,-2.851 4.046,-4.395 4.598,-4.929 2.449,-2.379 2.008,-1.727 1.766,-1.301 1.597,-0.976 1.477,-0.711 1.402,-0.492 1.336,-0.297 1.313,-0.125 1.308,0.047 1.309,0.211 1.336,0.386 1.402,0.582 1.477,0.801 1.582,1.055 1.734,1.359 1.965,1.758 2.356,2.344 3.32,3.562 6.148,6.621 2.754,2.696 2.418,2.136 2.254,1.774 2.176,1.504 2.144,1.277 2.164,1.098 2.204,0.929 2.3,0.789 2.45,0.665 2.679,0.55 2.996,0.438 3.5,0.34 4.325,0.246 5.886,0.152 10.032,0.074 16.386,0.008"
             style="fill:none;stroke:#fb0006;stroke-width:3;stroke-linecap:square;stroke-linejoin:round;stroke-miterlimit:4;stroke-dasharray:none;stroke-opacity:1"
             id="path58" />
        </g>
        <path
           d="m 409.70693,82.01023 -16.9892,0.08602 -4.7634,0.18704 -3.243,0.28906 -2.5438,0.38708 -2.1617,0.49611 -1.9025,0.60613 -1.7506,0.73015 -1.6295,0.86018 -1.5664,1.01521 -1.5395,1.19926 -1.5205,1.39929 -1.5394,1.64835 -1.5665,1.92641 -1.6455,2.28948 -1.7656,2.75058 -1.9936,3.42672 -2.4967,4.645 -5.9198,11.1513 -1.7385,2.8326 -1.4455,2.0555 -1.2624,1.5153 -1.1253,1.1062 -1.0353,0.7852 -0.9613,0.5231 -0.8983,0.3051 -0.8683,0.121 -0.8512,-0.051 -0.8673,-0.2221 -0.8833,-0.3991 -0.9422,-0.6171 -1.0043,-0.8592 -1.0974,-1.1652 -1.2193,-1.5463 -1.3835,-2.0365 -1.6295,-2.7105 -2.1016,-3.8369 -7.5653,-14.13193 -1.9336,-3.09066 -1.7505,-2.49252 -1.6415,-2.05543 -1.5865,-1.72337 -1.5665,-1.46131 -1.5515,-1.22225 -1.5824,-1.03522 -1.6295,-0.86818 -1.7236,-0.72616 -1.8555,-0.60212 -2.0557,-0.48411 -2.3597,-0.38308 -2.8288,-0.28506 -3.6852,-0.19504 -5.5566,-0.10602 -12.7419,-0.03101 h -20.7793"
           style="fill:#000000;fill-opacity:0.33000004;fill-rule:nonzero;stroke:none"
           id="path60" />
        <g
           id="g62"
           transform="matrix(-1.000304,0,0,-1.000211,666.6131,513.0541)"
           style="stroke:#000006;stroke-opacity:1;stroke-width:2.99922778;stroke-dasharray:none">
          <path
             d="m 256.828,430.953 16.984,-0.086 4.762,-0.187 3.242,-0.289 2.543,-0.387 2.161,-0.496 1.902,-0.606 1.75,-0.73 1.629,-0.86 1.566,-1.015 1.539,-1.199 1.52,-1.399 1.539,-1.648 1.566,-1.926 1.645,-2.289 1.765,-2.75 1.993,-3.426 2.496,-4.644 5.918,-11.149 1.738,-2.832 1.445,-2.055 1.262,-1.515 1.125,-1.106 1.035,-0.785 0.961,-0.523 0.898,-0.305 0.868,-0.121 0.851,0.051 0.867,0.222 0.883,0.399 0.942,0.617 1.004,0.859 1.097,1.165 1.219,1.546 1.383,2.036 1.629,2.71 2.101,3.836 7.563,14.129 1.933,3.09 1.75,2.492 1.641,2.055 1.586,1.723 1.566,1.461 1.551,1.222 1.582,1.035 1.629,0.868 1.723,0.726 1.855,0.602 2.055,0.484 2.359,0.383 2.828,0.285 3.684,0.195 5.555,0.106 12.738,0.031 h 20.773"
             style="fill:none;stroke:#000006;stroke-width:2.99922778;stroke-linecap:square;stroke-linejoin:round;stroke-miterlimit:4;stroke-dasharray:none;stroke-opacity:1"
             id="path64" />
        </g>
        <path
           d="m 227.04158,121.4365 -6.27091,0.3201 -5.13056,0.4221 -4.44736,0.5311 -4.01622,0.6491 -3.74314,0.7652 -3.58009,0.9072 -3.4851,1.0502 -3.485,1.2313 -3.5951,1.4413 -3.8492,1.7353 -4.4934,2.2115 -14.9025,7.5016 -3.1499,1.2933 -2.7859,0.9682 -2.5708,0.7191 -2.4387,0.5081 -2.3447,0.3201 -2.2817,0.145 -2.2697,-0.024 -2.2827,-0.187 -2.3287,-0.3641 -2.4068,-0.5461 -2.5397,-0.7472 -2.7389,-0.9842 -3.0479,-1.2772 -3.6071,-1.6994 -5.0515,-2.5865 -8.9677,-4.599 -4.2013,-1.9454 -3.7472,-1.5514 -3.544,-1.2932 -3.5011,-1.0983 -3.532097,-0.9332 -3.6531,-0.7891 -3.8532,-0.6612 -4.1692,-0.5461 -4.6615,-0.4341 -5.4156,-0.336 -0.1521,-0.008"
           style="fill:#fb0006;fill-opacity:0.33000004;fill-rule:nonzero;stroke:none"
           id="path66" />
        <g
           id="g68"
           transform="matrix(-1.000304,0,0,-1.000211,301.27517,513.0541)"
           style="stroke:#fb0006;stroke-opacity:1">
          <path
             d="m 74.211,391.535 6.269,-0.32 5.129,-0.422 4.446,-0.531 4.015,-0.649 3.742,-0.765 3.579,-0.907 3.484,-1.05 3.484,-1.231 3.594,-1.441 3.848,-1.735 4.492,-2.211 14.898,-7.5 3.149,-1.293 2.785,-0.968 2.57,-0.719 2.438,-0.508 2.344,-0.32 2.281,-0.145 2.269,0.024 2.282,0.187 2.328,0.364 2.406,0.546 2.539,0.747 2.738,0.984 3.047,1.277 3.606,1.699 5.05,2.586 8.965,4.598 4.2,1.945 3.746,1.551 3.543,1.293 3.5,1.098 3.531,0.933 3.652,0.789 3.852,0.661 4.168,0.546 4.66,0.434 5.414,0.336 0.152,0.008"
             style="fill:none;stroke:#fb0006;stroke-width:3;stroke-linecap:square;stroke-linejoin:round;stroke-miterlimit:4;stroke-dasharray:none;stroke-opacity:1"
             id="path70" />
        </g>
        <path
           d="m 409.70693,121.1005 -15.2857,0.101 -6.592,0.204 -4.6424,0.3041 -3.7271,0.4101 -3.197,0.5121 -2.8639,0.6251 -2.6338,0.7462 -2.4807,0.8792 -2.3917,1.0202 -2.3408,1.1832 -2.3437,1.3713 -2.3917,1.5984 -2.5128,1.8794 -2.7548,2.2774 -3.302,2.9577 -9.729,8.8658 -2.3287,1.8044 -2.0086,1.3483 -1.8135,1.0232 -1.6715,0.7542 -1.5865,0.5351 -1.5205,0.336 -1.4764,0.1611 -1.4615,-0.008 -1.4774,-0.1801 -1.4925,-0.348 -1.5515,-0.5351 -1.6295,-0.7422 -1.7345,-0.9802 -1.9036,-1.2703 -2.1326,-1.6293 -2.5398,-2.1645 -3.5641,-3.2697 -6.744,-6.2163 -2.9819,-2.4965 -2.6328,-1.9894 -2.4658,-1.6564 -2.3757,-1.3943 -2.3607,-1.1962 -2.3908,-1.0232 -2.4657,-0.8752 -2.5868,-0.7392 -2.7708,-0.6171 -3.059,-0.5041 -3.47,-0.3981 -4.1263,-0.3011 -5.2516,-0.207 -5.4816,-0.097"
           style="fill:#000000;fill-opacity:0.33000004;fill-rule:nonzero;stroke:none"
           id="path72" />
        <g
           id="g74"
           transform="matrix(-1.000304,0,0,-1.000211,666.6131,513.0541)"
           style="stroke:#000006;stroke-opacity:1;stroke-width:2.99922778;stroke-dasharray:none">
          <path
             d="m 256.828,391.871 15.281,-0.101 6.59,-0.204 4.641,-0.304 3.726,-0.41 3.196,-0.512 2.863,-0.625 2.633,-0.746 2.48,-0.879 2.391,-1.02 2.34,-1.183 2.343,-1.371 2.391,-1.598 2.512,-1.879 2.754,-2.277 3.301,-2.957 9.726,-8.864 2.328,-1.804 2.008,-1.348 1.813,-1.023 1.671,-0.754 1.586,-0.535 1.52,-0.336 1.476,-0.161 1.461,0.008 1.477,0.18 1.492,0.348 1.551,0.535 1.629,0.742 1.734,0.98 1.903,1.27 2.132,1.629 2.539,2.164 3.563,3.269 6.742,6.215 2.981,2.496 2.632,1.989 2.465,1.656 2.375,1.394 2.36,1.196 2.39,1.023 2.465,0.875 2.586,0.739 2.77,0.617 3.058,0.504 3.469,0.398 4.125,0.301 5.25,0.207 5.48,0.097"
             style="fill:none;stroke:#000006;stroke-width:2.99922778;stroke-linecap:square;stroke-linejoin:round;stroke-miterlimit:4;stroke-dasharray:none;stroke-opacity:1"
             id="path76" />
        </g>
        <path
           d="m 227.04158,165.8249 -22.56187,0.086 -6.66601,0.1871 -4.5514,0.293 -3.6071,0.3911 -3.0599,0.4961 -2.7269,0.6051 -2.4967,0.7272 -2.3447,0.8552 -2.2507,1.0002 -2.1917,1.1572 -2.1766,1.3393 -2.2237,1.5633 -2.2977,1.8244 -2.4808,2.1885 -2.8328,2.7265 -3.9272,4.0439 -5.1776,5.2941 -2.5088,2.3245 -2.0546,1.6804 -1.8136,1.2702 -1.6445,0.9572 -1.5204,0.6952 -1.4455,0.4841 -1.4024,0.289 -1.3564,0.1181 -1.3514,-0.055 -1.3564,-0.2191 -1.4024,-0.3981 -1.4465,-0.5861 -1.5194,-0.8012 -1.6456,-1.0592 -1.8125,-1.3713 -2.0556,-1.7694 -2.4808,-2.3715 -3.6221,-3.7237 -5.5997,-5.7393 -2.8639,-2.6805 -2.4967,-2.1135 -2.3297,-1.7543 -2.2387,-1.4813 -2.2037,-1.2613 -2.2237,-1.0822 -2.285697,-0.9222 -2.3717,-0.7812 -2.5437,-0.6571 -2.7699,-0.5431 -3.1069,-0.4331 -3.6381,-0.3321 -4.5044,-0.2391 -5.0526,-0.132"
           style="fill:#fb0006;fill-opacity:0.33000004;fill-rule:nonzero;stroke:none"
           id="path78" />
        <g
           id="g80"
           transform="matrix(-1.000304,0,0,-1.000211,301.27517,513.0541)"
           style="stroke:#fb0006;stroke-opacity:1">
          <path
             d="m 74.211,347.156 22.555,-0.086 6.664,-0.187 4.55,-0.293 3.606,-0.391 3.059,-0.496 2.726,-0.605 2.496,-0.727 2.344,-0.855 2.25,-1 2.191,-1.157 2.176,-1.339 2.223,-1.563 2.297,-1.824 2.48,-2.188 2.832,-2.726 3.926,-4.043 5.176,-5.293 2.508,-2.324 2.054,-1.68 1.813,-1.27 1.644,-0.957 1.52,-0.695 1.445,-0.484 1.402,-0.289 1.356,-0.118 1.351,0.055 1.356,0.219 1.402,0.398 1.446,0.586 1.519,0.801 1.645,1.059 1.812,1.371 2.055,1.769 2.48,2.371 3.621,3.723 5.598,5.738 2.863,2.68 2.496,2.113 2.329,1.754 2.238,1.481 2.203,1.261 2.223,1.082 2.285,0.922 2.371,0.781 2.543,0.657 2.769,0.543 3.106,0.433 3.637,0.332 4.503,0.239 5.051,0.132"
             style="fill:none;stroke:#fb0006;stroke-width:3;stroke-linecap:square;stroke-linejoin:round;stroke-miterlimit:4;stroke-dasharray:none;stroke-opacity:1"
             id="path82" />
        </g>
        <path
           d="m 409.70693,165.8209 -47.2374,0.086 -4.0482,0.183 -2.7118,0.2861 -2.1297,0.3861 -1.7965,0.4921 -1.5825,0.6021 -1.4615,0.7342 -1.3714,0.8792 -1.3094,1.0352 -1.2774,1.2272 -1.2784,1.4613 -1.2934,1.7344 -1.3244,2.0594 -1.3874,2.4696 -1.4764,2.9806 -1.6295,3.6728 -1.9186,4.763 -2.9229,7.7706 -2.8919,7.5406 -1.6445,3.8288 -1.3204,2.6846 -1.1293,1.9184 -0.9893,1.3713 -0.8823,0.9532 -0.7932,0.6171 -0.7313,0.3721 -0.6832,0.167 -0.6682,-0.011 -0.6722,-0.176 -0.6992,-0.3631 -0.7472,-0.5821 -0.8043,-0.8522 -0.8992,-1.1993 -1.0043,-1.6413 -1.1404,-2.1955 -1.3404,-2.9576 -1.6765,-4.1299 -2.7078,-7.1965 -3.169,-8.2837 -1.9026,-4.512 -1.6415,-3.4817 -1.4924,-2.7816 -1.4145,-2.2935 -1.3564,-1.8874 -1.3244,-1.5623 -1.3244,-1.3093 -1.3404,-1.0942 -1.3714,-0.8982 -1.4304,-0.7422 -1.5355,-0.6131 -1.7075,-0.4931 -1.9456,-0.3861 -2.3447,-0.289 -3.044,-0.1961 -4.5523,-0.109 -10.1711,-0.039 h -7.5953"
           style="fill:#000000;fill-opacity:0.33000004;fill-rule:nonzero;stroke:none"
           id="path84" />
        <g
           id="g86"
           transform="matrix(-1.000304,0,0,-1.000211,666.6131,513.0541)"
           style="stroke:#000006;stroke-opacity:1;stroke-width:2.99922778;stroke-dasharray:none">
          <path
             d="m 256.828,347.16 47.223,-0.086 4.047,-0.183 2.711,-0.286 2.129,-0.386 1.796,-0.492 1.582,-0.602 1.461,-0.734 1.371,-0.879 1.309,-1.035 1.277,-1.227 1.278,-1.461 1.293,-1.734 1.324,-2.059 1.387,-2.469 1.476,-2.98 1.629,-3.672 1.918,-4.762 2.922,-7.769 2.891,-7.539 1.644,-3.828 1.32,-2.684 1.129,-1.918 0.989,-1.371 0.882,-0.953 0.793,-0.617 0.731,-0.372 0.683,-0.167 0.668,0.011 0.672,0.176 0.699,0.363 0.747,0.582 0.804,0.852 0.899,1.199 1.004,1.641 1.14,2.195 1.34,2.957 1.676,4.129 2.707,7.195 3.168,8.282 1.902,4.511 1.641,3.481 1.492,2.781 1.414,2.293 1.356,1.887 1.324,1.562 1.324,1.309 1.34,1.094 1.371,0.898 1.43,0.742 1.535,0.613 1.707,0.493 1.945,0.386 2.344,0.289 3.043,0.196 4.551,0.109 10.168,0.039 h 7.593"
             style="fill:none;stroke:#000006;stroke-width:2.99922778;stroke-linecap:square;stroke-linejoin:round;stroke-miterlimit:4;stroke-dasharray:none;stroke-opacity:1"
             id="path88" />
        </g>
        <path
           d="m 227.04158,218.0969 -37.69148,0.083 -5.1306,0.1831 -3.469,0.289 -2.7278,0.3871 -2.2977,0.4881 -2.0397,0.6061 -1.8555,0.7222 -1.7506,0.8602 -1.6765,1.0112 -1.6295,1.1802 -1.6135,1.3753 -1.6295,1.6134 -1.6725,1.8994 -1.7505,2.2384 -1.8876,2.6956 -2.1446,3.3647 -2.8019,4.731 -5.1615,8.7519 -1.9186,2.8876 -1.5675,2.0704 -1.3714,1.5433 -1.2154,1.1293 -1.1133,0.8131 -1.0353,0.5581 -0.9733,0.3401 -0.9453,0.1561 -0.9263,-0.015 -0.9293,-0.1841 -0.9573,-0.3631 -1.0083,-0.5671 -1.0633,-0.7972 -1.1564,-1.0822 -1.2664,-1.4143 -1.4294,-1.8594 -1.6725,-2.4655 -2.1176,-3.4337 -4.0793,-7.0295 -3.0009,-4.985 -2.1767,-3.3057 -1.9185,-2.6136 -1.7786,-2.1564 -1.7075,-1.8054 -1.6565,-1.5163 -1.6445,-1.2813 -1.6615,-1.0822 -1.7035,-0.9182 -1.7976,-0.7732 -1.9176,-0.6411 -2.098597,-0.5271 -2.3757,-0.4181 -2.8019,-0.3211 -3.5321,-0.2261 -4.9785,-0.137 -9.2098,-0.055 h -0.6052"
           style="fill:#fb0006;fill-opacity:0.33000004;fill-rule:nonzero;stroke:none"
           id="path90" />
        <g
           id="g92"
           transform="matrix(-1.000304,0,0,-1.000211,301.27517,513.0541)"
           style="stroke:#fb0006;stroke-opacity:1">
          <path
             d="m 74.211,294.895 37.68,-0.083 5.129,-0.183 3.468,-0.289 2.727,-0.387 2.297,-0.488 2.039,-0.606 1.855,-0.722 1.75,-0.86 1.676,-1.011 1.629,-1.18 1.613,-1.375 1.629,-1.613 1.672,-1.899 1.75,-2.238 1.887,-2.695 2.144,-3.364 2.801,-4.73 5.16,-8.75 1.918,-2.887 1.567,-2.07 1.371,-1.543 1.215,-1.129 1.113,-0.813 1.035,-0.558 0.973,-0.34 0.945,-0.156 0.926,0.015 0.929,0.184 0.957,0.363 1.008,0.567 1.063,0.797 1.156,1.082 1.266,1.414 1.429,1.859 1.672,2.465 2.117,3.433 4.078,7.028 3,4.984 2.176,3.305 1.918,2.613 1.778,2.156 1.707,1.805 1.656,1.516 1.644,1.281 1.661,1.082 1.703,0.918 1.797,0.773 1.917,0.641 2.098,0.527 2.375,0.418 2.801,0.321 3.531,0.226 4.977,0.137 9.207,0.055 h 0.605"
             style="fill:none;stroke:#fb0006;stroke-width:3;stroke-linecap:square;stroke-linejoin:round;stroke-miterlimit:4;stroke-dasharray:none;stroke-opacity:1"
             id="path94" />
        </g>
        <path
           d="m 409.70693,218.0969 -57.3925,0.083 -3.0439,0.1831 -2.0396,0.285 -1.5985,0.3831 -1.3554,0.5001 -1.2004,0.6171 -1.0973,0.7542 -1.0513,0.9262 -1.0043,1.1132 -1.0044,1.3633 -1.0043,1.6534 -1.0193,2.0044 -1.0673,2.4725 -1.1093,3.0166 -1.1874,3.7238 -1.2934,4.622 -1.4934,5.9773 -1.9806,8.6858 -3.4541,15.2262 -1.3244,5.0241 -1.0513,3.3757 -0.8953,2.3525 -0.7612,1.5543 -0.6722,1.0122 -0.5782,0.5861 -0.5002,0.2931 -0.4731,0.082 -0.4571,-0.09 -0.4732,-0.2771 -0.5151,-0.5081 -0.5792,-0.8201 -0.6562,-1.2353 -0.7462,-1.7774 -0.8673,-2.5275 -1.0203,-3.5128 -1.2614,-4.993 -1.7975,-7.8577 -3.7432,-16.5034 -1.5555,-6.0013 -1.3364,-4.532 -1.2193,-3.5557 -1.1564,-2.8796 -1.0983,-2.2935 -1.0623,-1.8554 -1.0514,-1.5043 -1.0513,-1.2153 -1.0663,-0.9802 -1.0943,-0.7891 -1.1724,-0.6332 -1.2774,-0.5041 -1.4614,-0.3911 -1.7506,-0.289 -2.2707,-0.1951 -3.395,-0.113 -7.4863,-0.036 h -18.9707"
           style="fill:#000000;fill-opacity:0.33000004;fill-rule:nonzero;stroke:none"
           id="path96" />
        <g
           id="g98"
           transform="matrix(-1.000304,0,0,-1.000211,666.6131,513.0541)"
           style="stroke:#000006;stroke-opacity:1;stroke-width:2.99922778;stroke-dasharray:none">
          <path
             d="m 256.828,294.895 57.375,-0.083 3.043,-0.183 2.039,-0.285 1.598,-0.383 1.355,-0.5 1.2,-0.617 1.097,-0.754 1.051,-0.926 1.004,-1.113 1.004,-1.363 1.004,-1.653 1.019,-2.004 1.067,-2.472 1.109,-3.016 1.187,-3.723 1.293,-4.621 1.493,-5.976 1.98,-8.684 3.453,-15.223 1.324,-5.023 1.051,-3.375 0.895,-2.352 0.761,-1.554 0.672,-1.012 0.578,-0.586 0.5,-0.293 0.473,-0.082 0.457,0.09 0.473,0.277 0.515,0.508 0.579,0.82 0.656,1.235 0.746,1.777 0.867,2.527 1.02,3.512 1.261,4.992 1.797,7.856 3.742,16.5 1.555,6 1.336,4.531 1.219,3.555 1.156,2.879 1.098,2.293 1.062,1.855 1.051,1.504 1.051,1.215 1.066,0.98 1.094,0.789 1.172,0.633 1.277,0.504 1.461,0.391 1.75,0.289 2.27,0.195 3.394,0.113 7.484,0.036 h 18.965"
             style="fill:none;stroke:#000006;stroke-width:2.99922778;stroke-linecap:square;stroke-linejoin:round;stroke-miterlimit:4;stroke-dasharray:none;stroke-opacity:1"
             id="path100" />
        </g>
        <path
           d="m 227.04158,274.6328 -70.81858,0.082 -1.5665,0.1841 -1.0513,0.281 -0.8202,0.3901 -0.7152,0.5241 -0.6562,0.6912 -0.6222,0.9102 -0.6092,1.1922 -0.6092,1.5663 -0.6252,2.0825 -0.6372,2.7236 -0.6722,3.6137 -0.6992,4.716 -0.7622,6.3293 -0.8203,8.3188 -0.9303,11.2014 -1.1253,15.7573 -3.364,48.5722 -0.7313,7.4786 -0.5781,4.3839 -0.4722,2.4295 -0.3641,1.1253 -0.2771,0.403 -0.195,0.0501 -0.1841,-0.1321 -0.2261,-0.4071 -0.289,-0.8941 -0.3682,-1.7234 -0.4571,-3.0396 -0.5622,-5.0011 -0.6842,-7.6856 -0.9142,-12.3066 -1.6876,-25.5954 -1.5244,-21.9266 -1.0353,-12.6157 -0.8983,-9.0219 -0.8213,-6.6534 -0.7612,-4.88 -0.7312,-3.6488 -0.6992,-2.6805 -0.6722,-1.9455 -0.6682,-1.4543 -0.6562,-1.0392 -0.6682,-0.7611 -0.7153,-0.5672 -0.7932,-0.41 -0.9263,-0.2891 -1.2033,-0.1911 -1.8406,-0.106 -4.3563,-0.031 H 74.800203"
           style="fill:#fb0006;fill-opacity:0.33000004;fill-rule:nonzero;stroke:none"
           id="path102" />
        <g
           id="g104"
           transform="matrix(-1.000304,0,0,-1.000211,301.27517,513.0541)"
           style="stroke:#fb0006;stroke-opacity:1">
          <path
             d="m 74.211,238.371 70.797,-0.082 1.566,-0.184 1.051,-0.281 0.82,-0.39 0.715,-0.524 0.656,-0.691 0.622,-0.91 0.609,-1.192 0.609,-1.566 0.625,-2.082 0.637,-2.723 0.672,-3.613 0.699,-4.715 0.762,-6.328 0.82,-8.317 0.93,-11.199 1.125,-15.754 3.363,-48.562 0.731,-7.477 0.578,-4.383 0.472,-2.429 0.364,-1.125 0.277,-0.403 0.195,-0.05 0.184,0.132 0.226,0.407 0.289,0.894 0.368,1.723 0.457,3.039 0.562,5 0.684,7.684 0.914,12.304 1.687,25.59 1.524,21.922 1.035,12.613 0.898,9.02 0.821,6.652 0.761,4.879 0.731,3.648 0.699,2.68 0.672,1.945 0.668,1.454 0.656,1.039 0.668,0.761 0.715,0.567 0.793,0.41 0.926,0.289 1.203,0.191 1.84,0.106 4.355,0.031 h 38.164"
             style="fill:none;stroke:#fb0006;stroke-width:3;stroke-linecap:square;stroke-linejoin:round;stroke-miterlimit:4;stroke-dasharray:none;stroke-opacity:1"
             id="path106" />
        </g>
        <path
           d="m 409.70693,274.6328 -80.1024,0.082 -0.7932,0.1801 -0.5312,0.289 -0.4421,0.4291 -0.3941,0.6252 -0.3992,0.9612 -0.3941,1.4503 -0.3951,2.1174 -0.4141,3.1607 -0.4262,4.634 -0.4531,6.9234 -0.4882,10.1382 -0.5201,14.437 -0.5782,21.0234 -0.6992,32.0888 -1.1413,61.728 -0.9143,45.4866 -0.5312,19.055 -0.3941,8.8258 -0.2781,3.0707 -0.164,0.5901 -0.0781,-0.059 -0.106,-0.4211 -0.167,-1.4653 -0.2431,-3.8408 -0.3201,-7.9547 -0.4261,-15.1562 -0.5942,-27.7168 -2.5278,-125.8545 -0.6252,-19.5311 -0.5622,-12.7257 -0.5161,-8.2128 -0.4882,-5.3131 -0.4731,-3.4537 -0.4571,-2.1925 -0.4412,-1.3552 -0.4421,-0.8522 -0.4532,-0.5311 -0.5041,-0.3241 -0.6252,-0.1991 -0.9413,-0.106 -2.2707,-0.031 h -48.5297"
           style="fill:#000000;fill-opacity:0.33000004;fill-rule:nonzero;stroke:none"
           id="path108" />
        <g
           id="g110"
           transform="matrix(-1.000304,0,0,-1.000211,666.6131,513.0541)"
           style="stroke:#000006;stroke-opacity:1;stroke-width:2.99922778;stroke-dasharray:none">
          <path
             d="m 256.828,238.371 80.078,-0.082 0.793,-0.18 0.531,-0.289 0.442,-0.429 0.394,-0.625 0.399,-0.961 0.394,-1.45 0.395,-2.117 0.414,-3.16 0.426,-4.633 0.453,-6.922 0.488,-10.136 0.52,-14.434 0.578,-21.019 0.699,-32.082 1.141,-61.715 0.914,-45.477 0.531,-19.051 0.394,-8.824 0.278,-3.07 0.164,-0.59 0.078,0.059 0.106,0.421 0.167,1.465 0.243,3.84 0.32,7.953 0.426,15.153 0.594,27.711 2.527,125.828 0.625,19.527 0.562,12.723 0.516,8.211 0.488,5.312 0.473,3.453 0.457,2.192 0.441,1.355 0.442,0.852 0.453,0.531 0.504,0.324 0.625,0.199 0.941,0.106 2.27,0.031 h 48.515"
             style="fill:none;stroke:#000006;stroke-width:2.99922778;stroke-linecap:square;stroke-linejoin:round;stroke-miterlimit:4;stroke-dasharray:none;stroke-opacity:1"
             id="path112" />
        </g>
        <g
           id="g114"
           transform="matrix(1.000304,0,0,-1.000211,0.5645336,513.0541)"
           style="stroke:#000000;stroke-opacity:1">
          <path
             d="M 68.210732,486.37522 237.496,486.375"
             style="fill:none;stroke:#000000;stroke-width:2.25;stroke-linecap:round;stroke-linejoin:round;stroke-miterlimit:4;stroke-dasharray:none;stroke-opacity:1"
             id="path116"
             sodipodi:nodetypes="cc" />
        </g>
        <g
           id="g118"
           transform="matrix(1.000304,0,0,-1.000211,0.5645336,513.0541)"
           style="stroke:#000000;stroke-opacity:1">
          <path
             d="M 253.461,486.375 H 422.746"
             style="fill:none;stroke:#000000;stroke-width:2.25;stroke-linecap:round;stroke-linejoin:round;stroke-miterlimit:4;stroke-dasharray:none;stroke-opacity:1"
             id="path120" />
        </g>
      </g>
    </g>
    <g
       id="g214">
      <g
         id="g216"
         clip-path="url(#clipPath220)">
        <g
           id="g222"
           transform="translate(13.5,81)" />
      </g>
    </g>
    <text
       xml:space="preserve"
       transform="matrix(0.75000002,0,0,-0.75000002,0,437.15128)"
       id="text3440"
       style="font-size:16px;line-height:1.25;font-family:sans-serif;word-spacing:0px;white-space:pre;shape-inside:url(#rect3442);display:inline;fill:#000000;fill-opacity:1"
       x="43.105469"
       y="0"><tspan
         x="432.02148"
         y="581.38867"
         id="tspan83893"><tspan
           style="text-align:center;text-anchor:middle"
           id="tspan83891">$\pi$</tspan></tspan></text>
    <text
       xml:space="preserve"
       transform="matrix(0.75000002,0,0,-0.75000002,-1.102072,401.64791)"
       id="text3523"
       style="font-size:16px;line-height:1.25;font-family:sans-serif;text-align:center;word-spacing:0px;white-space:pre;shape-inside:url(#rect3525);display:inline;fill:#fb0006;fill-opacity:1"
       x="97.597656"
       y="0"><tspan
         x="142.82715"
         y="536.94336"
         id="tspan83895">$\widetilde \pi$</tspan></text>
    <text
       xml:space="preserve"
       style="font-size:12px;line-height:1.25;font-family:sans-serif;word-spacing:0px;stroke-width:0.75;fill:#000000;fill-opacity:1"
       x="146.84177"
       y="26.986786"
       id="text7443"
       transform="matrix(0,1,1,0,0,0)"><tspan
         sodipodi:role="line"
         id="tspan7441"
         style="font-size:12px;stroke-width:0.75;fill:#000000;fill-opacity:1"
         x="146.84177"
         y="26.986786">Time</tspan></text>
    <path
       style="fill:none;stroke:#000000;stroke-width:1.8;stroke-linecap:butt;stroke-linejoin:miter;stroke-dasharray:none;stroke-opacity:1;marker-end:url(#marker8099)"
       d="M 40.380608,26.576251 V 342.68971"
       id="path7499"
       sodipodi:nodetypes="cc" />
  </g>
</svg>
